<svg width="170" height="196" viewBox="0 0 170 196" fill="none" xmlns="http://www.w3.org/2000/svg">
<path id="Vector" d="M156.509 193.707C156.469 193.535 156.432 193.364 156.4 193.193C156.356 193.002 156.32 192.806 156.284 192.616C155.761 192.718 155.235 192.787 154.703 192.831C154.583 192.846 154.462 192.855 154.342 192.855H154.338C153.787 192.895 153.236 192.904 152.685 192.88C150.12 192.782 147.554 192.077 145.126 190.77C141.511 188.828 137.9 186.866 134.285 184.913C131.249 183.269 128.209 181.625 125.173 179.98C122.157 178.405 119.142 176.824 116.126 175.249C108.646 171.339 101.168 167.424 93.6883 163.509C93.4752 163.397 93.2582 163.284 93.0451 163.172H93.0411C90.6446 161.919 88.2559 160.666 85.8594 159.413C87.9103 161.366 89.9607 163.318 92.0116 165.276C92.0116 165.276 92.0115 165.276 92.0155 165.276C94.412 166.528 96.8046 167.786 99.2012 169.039H99.2051C101.22 170.091 103.23 171.148 105.245 172.2C110.778 175.092 116.311 177.989 121.844 180.886C122.616 181.287 123.384 181.693 124.156 182.094C130.839 185.706 137.505 189.356 144.201 192.933C146.887 194.367 149.725 195.17 152.56 195.297C153.232 195.331 153.907 195.326 154.579 195.277C154.671 195.277 154.764 195.268 154.856 195.263C155.508 195.209 156.155 195.121 156.798 194.988C156.694 194.563 156.597 194.137 156.509 193.707ZM154.627 194.274L154.699 192.909C154.699 192.884 154.703 192.855 154.703 192.831C154.583 192.846 154.462 192.855 154.342 192.855H154.338C153.787 192.895 153.236 192.904 152.685 192.88C150.12 192.782 147.554 192.077 145.126 190.77C141.511 188.828 137.9 186.866 134.285 184.913C131.249 183.269 128.209 181.625 125.173 179.98C122.157 178.405 119.141 176.824 116.125 175.249C108.646 171.339 101.168 167.424 93.6883 163.509C93.4752 163.397 93.2582 163.284 93.0451 163.172H93.0411C90.6446 161.919 88.2559 160.666 85.8594 159.413C87.9103 161.366 89.9603 163.318 92.0112 165.276C92.0112 165.276 92.0115 165.276 92.0155 165.276C94.412 166.528 96.8042 167.786 99.2008 169.039H99.2051C101.22 170.091 103.23 171.148 105.244 172.2C110.777 175.092 116.31 177.989 121.843 180.886C122.615 181.287 123.384 181.693 124.155 182.094C130.838 185.706 137.505 189.356 144.201 192.933C146.887 194.367 149.725 195.17 152.56 195.297C153.231 195.331 153.907 195.326 154.578 195.277C154.671 195.277 154.763 195.268 154.856 195.263C154.776 194.935 154.699 194.602 154.627 194.274ZM154.627 194.274L154.699 192.909C154.699 192.884 154.703 192.855 154.703 192.831C154.583 192.846 154.462 192.855 154.342 192.855H154.338C153.787 192.895 153.236 192.904 152.685 192.88C150.12 192.782 147.554 192.077 145.126 190.77C141.511 188.828 137.9 186.866 134.285 184.913C131.249 183.269 128.209 181.625 125.173 179.98C122.157 178.405 119.141 176.824 116.125 175.249C108.646 171.339 101.168 167.424 93.6883 163.509C93.4752 163.397 93.2582 163.284 93.0451 163.172H93.0411C90.6446 161.919 88.2559 160.666 85.8594 159.413C87.9103 161.366 89.9603 163.318 92.0112 165.276C92.0112 165.276 92.0115 165.276 92.0155 165.276C94.412 166.528 96.8042 167.786 99.2008 169.039H99.2051C101.22 170.091 103.23 171.148 105.244 172.2C110.777 175.092 116.31 177.989 121.843 180.886C122.615 181.287 123.384 181.693 124.155 182.094C130.838 185.706 137.505 189.356 144.201 192.933C146.887 194.367 149.725 195.17 152.56 195.297C153.231 195.331 153.907 195.326 154.578 195.277C154.671 195.277 154.763 195.268 154.856 195.263C154.776 194.935 154.699 194.602 154.627 194.274ZM154.342 192.855H154.338C153.787 192.895 153.236 192.904 152.685 192.88C150.12 192.782 147.554 192.077 145.126 190.77C141.511 188.828 137.9 186.866 134.285 184.913C131.249 183.269 128.209 181.625 125.173 179.98C122.157 178.405 119.142 176.824 116.126 175.249C108.646 171.339 101.168 167.424 93.6883 163.509C93.4752 163.397 93.2582 163.284 93.0451 163.172H93.0411C90.6446 161.919 88.2559 160.666 85.8594 159.413C87.9103 161.366 89.9607 163.318 92.0116 165.276C92.0116 165.276 92.0115 165.276 92.0155 165.276C94.412 166.528 96.8046 167.786 99.2012 169.039H99.2051C101.22 170.091 103.23 171.148 105.245 172.2C110.778 175.092 116.311 177.989 121.844 180.886C122.616 181.287 123.384 181.693 124.156 182.094C130.839 185.706 137.505 189.356 144.201 192.933C146.887 194.367 149.725 195.17 152.56 195.297C153.232 195.331 153.907 195.326 154.579 195.277C154.595 194.945 154.611 194.607 154.627 194.274L154.699 192.909C154.699 192.884 154.703 192.855 154.703 192.831C154.583 192.846 154.462 192.855 154.342 192.855ZM154.342 192.855H154.338C153.787 192.895 153.236 192.904 152.685 192.88C150.12 192.782 147.554 192.077 145.126 190.77C141.511 188.828 137.9 186.866 134.285 184.913C131.249 183.269 128.209 181.625 125.173 179.98C122.157 178.405 119.142 176.824 116.126 175.249C108.646 171.339 101.168 167.424 93.6883 163.509C93.4752 163.397 93.2582 163.284 93.0451 163.172H93.0411C90.6446 161.919 88.2559 160.666 85.8594 159.413C87.9103 161.366 89.9607 163.318 92.0116 165.276C92.0116 165.276 92.0115 165.276 92.0155 165.276C94.412 166.528 96.8046 167.786 99.2012 169.039H99.2051C101.22 170.091 103.23 171.148 105.245 172.2C110.778 175.092 116.311 177.989 121.844 180.886C122.616 181.287 123.384 181.693 124.156 182.094C130.839 185.706 137.505 189.356 144.201 192.933C146.887 194.367 149.725 195.17 152.56 195.297C153.232 195.331 153.907 195.326 154.579 195.277C154.595 194.945 154.611 194.607 154.627 194.274L154.699 192.909C154.699 192.884 154.703 192.855 154.703 192.831C154.583 192.846 154.462 192.855 154.342 192.855ZM168.596 146.843C165.95 140.677 163.309 134.516 160.663 128.351C156.038 117.565 151.41 106.78 146.786 95.9956C141.828 84.4372 136.87 72.8789 131.912 61.321C127.727 51.5587 123.537 41.7965 119.351 32.0337C117.735 28.2706 116.122 24.5027 114.505 20.7395C114.164 19.9466 113.826 19.149 113.484 18.3566C113.122 17.5147 112.764 16.6781 112.402 15.8363C111.039 12.6557 109.415 9.69982 107.207 7.2775C102.02 1.59149 94.7743 -0.767444 87.9426 0.964773C84.2351 1.90412 81.0387 4.1161 78.0913 6.925C76.3463 8.58903 74.6009 10.2526 72.8559 11.9161C65.9559 18.4882 59.0599 25.0597 52.1639 31.6318C43.7841 39.6176 35.4044 47.604 27.0246 55.5899C20.7959 61.5256 14.5676 67.4613 8.33887 73.3971C7.16487 74.5126 5.99047 75.6235 4.82437 76.7443C3.91161 77.6155 3.06317 78.5745 2.28301 79.5969C1.75619 80.2822 1.26568 80.9964 0.807129 81.7402C1.55099 81.8675 2.28695 82.0581 3.01069 82.3127C3.47318 81.6274 3.97159 80.9767 4.49447 80.3504C5.0493 79.6848 5.64045 79.0586 6.25566 78.4665C9.99944 74.8748 13.7629 71.3124 17.5146 67.7351C25.1343 60.4734 32.7501 53.2161 40.3659 45.9592C48.4158 38.2864 56.4661 30.6185 64.5163 22.9452C69.442 18.2524 74.3637 13.5595 79.2894 8.87188C81.7502 6.52304 84.3879 4.59489 87.4482 3.61616C93.9823 1.53625 101.172 3.73382 106.098 9.36077C108.8 12.4434 110.52 16.5345 112.189 20.557C112.543 21.4133 112.897 22.2696 113.255 23.1066V23.1114C113.271 23.1455 113.287 23.1849 113.303 23.219C116.649 31.0142 119.99 38.8094 123.335 46.6046C127.992 57.458 132.644 68.3119 137.3 79.1652C142.162 90.5031 147.027 101.836 151.889 113.175C155.946 122.633 160.003 132.088 164.056 141.547C165.001 143.748 165.946 145.951 166.887 148.148C166.891 148.148 166.891 148.153 166.891 148.153C166.955 148.305 167.023 148.456 167.084 148.608C167.414 149.372 167.739 150.135 168.065 150.893C168.121 150.825 168.177 150.757 168.23 150.688C168.668 150.15 169.115 149.616 169.565 149.097C169.239 148.345 168.918 147.596 168.596 146.843ZM154.338 192.855C153.787 192.895 153.236 192.904 152.685 192.88C150.12 192.782 147.554 192.077 145.126 190.77C141.511 188.828 137.9 186.866 134.285 184.913C131.249 183.269 128.209 181.625 125.173 179.98C122.157 178.405 119.142 176.824 116.126 175.249C108.646 171.339 101.168 167.424 93.6883 163.509C93.4752 163.397 93.2582 163.284 93.0451 163.172H93.0411C90.6446 161.919 88.2559 160.666 85.8594 159.413C87.9103 161.366 89.9607 163.318 92.0116 165.276C92.0116 165.276 92.0115 165.276 92.0155 165.276C94.412 166.528 96.8046 167.786 99.2012 169.039H99.2051C101.22 170.091 103.23 171.148 105.245 172.2C110.778 175.092 116.311 177.989 121.844 180.886C122.616 181.287 123.384 181.693 124.156 182.094C130.839 185.706 137.505 189.356 144.201 192.933C146.887 194.367 149.725 195.17 152.56 195.297C153.232 195.331 153.907 195.326 154.579 195.277C154.595 194.945 154.611 194.607 154.627 194.274L154.699 192.909C154.699 192.884 154.703 192.855 154.703 192.831C154.583 192.846 154.462 192.855 154.342 192.855H154.338ZM154.342 192.855H154.338C153.787 192.895 153.236 192.904 152.685 192.88C150.12 192.782 147.554 192.077 145.126 190.77C141.511 188.828 137.9 186.866 134.285 184.913C131.249 183.269 128.209 181.625 125.173 179.98C122.157 178.405 119.142 176.824 116.126 175.249C108.646 171.339 101.168 167.424 93.6883 163.509C93.4752 163.397 93.2582 163.284 93.0451 163.172H93.0411C90.6446 161.919 88.2559 160.666 85.8594 159.413C87.9103 161.366 89.9607 163.318 92.0116 165.276C92.0116 165.276 92.0115 165.276 92.0155 165.276C94.412 166.528 96.8046 167.786 99.2012 169.039H99.2051C101.22 170.091 103.23 171.148 105.245 172.2C110.778 175.092 116.311 177.989 121.844 180.886C122.616 181.287 123.384 181.693 124.156 182.094C130.839 185.706 137.505 189.356 144.201 192.933C146.887 194.367 149.725 195.17 152.56 195.297C153.232 195.331 153.907 195.326 154.579 195.277C154.595 194.945 154.611 194.607 154.627 194.274L154.699 192.909C154.699 192.884 154.703 192.855 154.703 192.831C154.583 192.846 154.462 192.855 154.342 192.855ZM154.627 194.274L154.699 192.909C154.699 192.884 154.703 192.855 154.703 192.831C154.583 192.846 154.462 192.855 154.342 192.855H154.338C153.787 192.895 153.236 192.904 152.685 192.88C150.12 192.782 147.554 192.077 145.126 190.77C141.511 188.828 137.9 186.866 134.285 184.913C131.249 183.269 128.209 181.625 125.173 179.98C122.157 178.405 119.141 176.824 116.125 175.249C108.646 171.339 101.168 167.424 93.6883 163.509C93.4752 163.397 93.2582 163.284 93.0451 163.172H93.0411C90.6446 161.919 88.2559 160.666 85.8594 159.413C87.9103 161.366 89.9603 163.318 92.0112 165.276C92.0112 165.276 92.0115 165.276 92.0155 165.276C94.412 166.528 96.8042 167.786 99.2008 169.039H99.2051C101.22 170.091 103.23 171.148 105.244 172.2C110.777 175.092 116.31 177.989 121.843 180.886C122.615 181.287 123.384 181.693 124.155 182.094C130.838 185.706 137.505 189.356 144.201 192.933C146.887 194.367 149.725 195.17 152.56 195.297C153.231 195.331 153.907 195.326 154.578 195.277C154.671 195.277 154.763 195.268 154.856 195.263C154.776 194.935 154.699 194.602 154.627 194.274ZM154.627 194.274L154.699 192.909C154.699 192.884 154.703 192.855 154.703 192.831C154.583 192.846 154.462 192.855 154.342 192.855H154.338C153.787 192.895 153.236 192.904 152.685 192.88C150.12 192.782 147.554 192.077 145.126 190.77C141.511 188.828 137.9 186.866 134.285 184.913C131.249 183.269 128.209 181.625 125.173 179.98C122.157 178.405 119.141 176.824 116.125 175.249C108.646 171.339 101.168 167.424 93.6883 163.509C93.4752 163.397 93.2582 163.284 93.0451 163.172H93.0411C90.6446 161.919 88.2559 160.666 85.8594 159.413C87.9103 161.366 89.9603 163.318 92.0112 165.276C92.0112 165.276 92.0115 165.276 92.0155 165.276C94.412 166.528 96.8042 167.786 99.2008 169.039H99.2051C101.22 170.091 103.23 171.148 105.244 172.2C110.777 175.092 116.31 177.989 121.843 180.886C122.615 181.287 123.384 181.693 124.155 182.094C130.838 185.706 137.505 189.356 144.201 192.933C146.887 194.367 149.725 195.17 152.56 195.297C153.231 195.331 153.907 195.326 154.578 195.277C154.671 195.277 154.763 195.268 154.856 195.263C154.776 194.935 154.699 194.602 154.627 194.274ZM154.627 194.274L154.699 192.909C154.699 192.884 154.703 192.855 154.703 192.831C154.583 192.846 154.462 192.855 154.342 192.855H154.338C153.787 192.895 153.236 192.904 152.685 192.88C150.12 192.782 147.554 192.077 145.126 190.77C141.511 188.828 137.9 186.866 134.285 184.913C131.249 183.269 128.209 181.625 125.173 179.98C122.157 178.405 119.141 176.824 116.125 175.249C108.646 171.339 101.168 167.424 93.6883 163.509C93.4752 163.397 93.2582 163.284 93.0451 163.172H93.0411C90.6446 161.919 88.2559 160.666 85.8594 159.413C87.9103 161.366 89.9603 163.318 92.0112 165.276C92.0112 165.276 92.0115 165.276 92.0155 165.276C94.412 166.528 96.8042 167.786 99.2008 169.039H99.2051C101.22 170.091 103.23 171.148 105.244 172.2C110.777 175.092 116.31 177.989 121.843 180.886C122.615 181.287 123.384 181.693 124.155 182.094C130.838 185.706 137.505 189.356 144.201 192.933C146.887 194.367 149.725 195.17 152.56 195.297C153.231 195.331 153.907 195.326 154.578 195.277C154.671 195.277 154.763 195.268 154.856 195.263C154.776 194.935 154.699 194.602 154.627 194.274ZM156.509 193.707C156.469 193.535 156.432 193.364 156.4 193.193C156.356 193.002 156.32 192.806 156.284 192.616C155.761 192.718 155.235 192.787 154.703 192.831C154.583 192.846 154.462 192.855 154.342 192.855H154.338C153.787 192.895 153.236 192.904 152.685 192.88C150.12 192.782 147.554 192.077 145.126 190.77C141.511 188.828 137.9 186.866 134.285 184.913C131.249 183.269 128.209 181.625 125.173 179.98C122.157 178.405 119.142 176.824 116.126 175.249C108.646 171.339 101.168 167.424 93.6883 163.509C93.4752 163.397 93.2582 163.284 93.0451 163.172H93.0411C90.6446 161.919 88.2559 160.666 85.8594 159.413C87.9103 161.366 89.9607 163.318 92.0116 165.276C92.0116 165.276 92.0115 165.276 92.0155 165.276C94.412 166.528 96.8046 167.786 99.2012 169.039H99.2051C101.22 170.091 103.23 171.148 105.245 172.2C110.778 175.092 116.311 177.989 121.844 180.886C122.616 181.287 123.384 181.693 124.156 182.094C130.839 185.706 137.505 189.356 144.201 192.933C146.887 194.367 149.725 195.17 152.56 195.297C153.232 195.331 153.907 195.326 154.579 195.277C154.671 195.277 154.764 195.268 154.856 195.263C155.508 195.209 156.155 195.121 156.798 194.988C156.694 194.563 156.597 194.137 156.509 193.707Z" fill="white" fill-opacity="0.15"/>
</svg>
