<svg width="27" height="27" viewBox="0 0 27 27" fill="none" xmlns="http://www.w3.org/2000/svg">
<g clip-path="url(#clip0_5626_4451)">
<path d="M26.4794 16.4905L15.0028 3.79517C14.8335 3.60897 14.6304 3.46086 14.3934 3.35083C14.1564 3.2408 13.911 3.18579 13.6571 3.18579C13.4032 3.18579 13.1577 3.2408 12.9208 3.35083C12.6838 3.46086 12.4807 3.60897 12.3114 3.79517L0.834831 16.4905C0.716341 16.6259 0.661328 16.7825 0.669792 16.9602C0.678255 17.1379 0.741732 17.2861 0.860221 17.4045C0.92793 17.4722 0.99987 17.5188 1.07604 17.5442C1.15221 17.5696 1.23262 17.5823 1.31725 17.5823C1.40189 17.5823 1.48652 17.5653 1.57116 17.5315C1.65579 17.4976 1.73197 17.4384 1.79967 17.3538L4.56725 14.3069V24.717C4.56725 25.2587 4.75768 25.72 5.13854 26.1008C5.5194 26.4817 5.9722 26.6721 6.49694 26.6721H20.8173C21.342 26.6721 21.7948 26.4817 22.1757 26.1008C22.5565 25.72 22.7469 25.2587 22.7469 24.717V14.3069L25.5145 17.3538C25.6499 17.4892 25.8065 17.5611 25.9842 17.5696C26.162 17.578 26.3186 17.523 26.454 17.4045C26.5725 17.2861 26.6359 17.1379 26.6444 16.9602C26.6529 16.7825 26.5979 16.6259 26.4794 16.4905ZM16.2469 25.3772H11.0673V19.5374C11.0673 19.3512 11.1307 19.1946 11.2577 19.0676C11.3846 18.9407 11.5327 18.8772 11.702 18.8772H15.6122C15.7814 18.8772 15.9296 18.9407 16.0565 19.0676C16.1835 19.1946 16.2469 19.3512 16.2469 19.5374V25.3772ZM21.452 24.717C21.452 24.9032 21.3885 25.0598 21.2616 25.1868C21.1346 25.3137 20.9865 25.3772 20.8173 25.3772H17.5673V19.5374C17.5673 18.9957 17.3768 18.5344 16.996 18.1536C16.6151 17.7727 16.1538 17.5823 15.6122 17.5823H11.702C11.1604 17.5823 10.6991 17.7727 10.3182 18.1536C9.93737 18.5344 9.74694 18.9957 9.74694 19.5374V25.3772H6.49694C6.32767 25.3772 6.17956 25.3137 6.0526 25.1868C5.92565 25.0598 5.86217 24.9032 5.86217 24.717V12.8596L13.2762 4.68384C13.327 4.61613 13.3863 4.56958 13.454 4.54419C13.5217 4.5188 13.5894 4.5061 13.6571 4.5061C13.7248 4.5061 13.7925 4.5188 13.8602 4.54419C13.9279 4.56958 13.9872 4.61613 14.038 4.68384L21.452 12.8596V24.717Z" fill="#C19D56"/>
</g>
<defs>
<clipPath id="clip0_5626_4451">
<rect width="26" height="26" fill="white" transform="matrix(1 0 0 -1 0.657227 26.6848)"/>
</clipPath>
</defs>
</svg>
