<svg width="27" height="27" viewBox="0 0 27 27" fill="none" xmlns="http://www.w3.org/2000/svg">
<g id="Icon" clip-path="url(#clip0_5626_4461)">
<path id="Vector" d="M23.7373 8.46704H2.94238C2.40072 8.46704 1.93945 8.65747 1.55859 9.03833C1.17773 9.41919 0.987305 9.88045 0.987305 10.4221V22.1272C0.987305 22.6689 1.17773 23.1301 1.55859 23.511C1.93945 23.8918 2.40072 24.0823 2.94238 24.0823H23.7373C24.279 24.0823 24.7402 23.8918 25.1211 23.511C25.502 23.1301 25.6924 22.6689 25.6924 22.1272V10.4221C25.6924 9.88045 25.502 9.41919 25.1211 9.03833C24.7402 8.65747 24.279 8.46704 23.7373 8.46704ZM23.7373 9.78735C23.7542 9.78735 23.7712 9.78735 23.7881 9.78735C23.805 9.78735 23.8219 9.78735 23.8389 9.78735L14.0635 16.3127C13.8773 16.4482 13.6361 16.5159 13.3398 16.5159C13.0436 16.5159 12.8024 16.4482 12.6162 16.3127L2.81543 9.78735C2.83236 9.78735 2.85352 9.78735 2.87891 9.78735C2.9043 9.78735 2.92546 9.78735 2.94238 9.78735H23.7373ZM23.7373 22.7874H2.94238C2.75618 22.7874 2.59961 22.7239 2.47266 22.5969C2.3457 22.47 2.28223 22.3134 2.28223 22.1272V10.9807L11.9053 17.4045C12.1084 17.54 12.3327 17.6415 12.5781 17.7092C12.8236 17.7769 13.0732 17.8108 13.3271 17.8108C13.598 17.8108 13.8561 17.7769 14.1016 17.7092C14.347 17.6415 14.5713 17.54 14.7744 17.4045L24.3975 10.9807V22.1272C24.3975 22.3134 24.334 22.47 24.207 22.5969C24.0801 22.7239 23.9235 22.7874 23.7373 22.7874Z" fill="#C19D56"/>
</g>
<defs>
<clipPath id="clip0_5626_4461">
<rect width="26" height="26" fill="white" transform="matrix(1 0 0 -1 0.987305 26.6848)"/>
</clipPath>
</defs>
</svg>
