<svg width="27" height="27" viewBox="0 0 27 27" fill="none" xmlns="http://www.w3.org/2000/svg">
<g id="Icon" clip-path="url(#clip0_5626_4456)">
<path id="Vector" d="M21.4521 26.8621C20.3011 26.8621 19.1162 26.7013 17.8975 26.3796C16.6787 26.058 15.4346 25.5756 14.165 24.9324C13.5895 24.6277 13.014 24.2976 12.4385 23.9421C11.863 23.5867 11.2959 23.2016 10.7373 22.7869C10.1787 22.3722 9.62858 21.932 9.08691 21.4666C8.54525 21.0011 8.02051 20.5144 7.5127 20.0066C7.00488 19.4988 6.52246 18.9783 6.06543 18.4451C5.6084 17.9119 5.17253 17.3617 4.75781 16.7947C4.3431 16.2276 3.95378 15.6563 3.58984 15.0808C3.22591 14.5053 2.90007 13.9298 2.6123 13.3542C1.96908 12.0847 1.48665 10.8406 1.16504 9.62183C0.843424 8.40308 0.682617 7.21818 0.682617 6.06714C0.682617 5.32235 0.936523 4.62411 1.44434 3.97241C1.95215 3.32072 2.3584 2.85946 2.66309 2.58862C3.08626 2.18237 3.60254 1.79305 4.21191 1.42065C4.82129 1.04826 5.37142 0.862061 5.8623 0.862061C6.09928 0.862061 6.36589 0.946695 6.66211 1.11597C6.95833 1.28524 7.29264 1.53914 7.66504 1.87769C7.93587 2.13159 8.22363 2.42782 8.52832 2.76636C8.83301 3.1049 9.14616 3.47729 9.46777 3.88354C9.65397 4.12052 10.0729 4.72144 10.7246 5.68628C11.3763 6.65112 11.7021 7.42977 11.7021 8.02222C11.7021 8.5131 11.4736 8.94051 11.0166 9.30444C10.5596 9.66838 10.0348 10.0281 9.44238 10.3835C9.22233 10.519 9.00228 10.6586 8.78223 10.8025C8.56217 10.9464 8.36751 11.086 8.19824 11.2214C8.01204 11.3569 7.89355 11.4626 7.84277 11.5388C7.79199 11.615 7.7666 11.6615 7.7666 11.6785C8.07129 12.4571 8.51986 13.2569 9.1123 14.0779C9.70475 14.8988 10.3734 15.6775 11.1182 16.4138C11.863 17.1501 12.6458 17.8145 13.4668 18.407C14.2878 18.9994 15.0791 19.448 15.8408 19.7527C15.8577 19.7527 15.9043 19.7273 15.9805 19.6765C16.0566 19.6257 16.1709 19.5072 16.3232 19.321C16.4587 19.1518 16.5941 18.9571 16.7295 18.7371C16.8649 18.517 17.0003 18.297 17.1357 18.0769C17.5081 17.5014 17.8763 16.9809 18.2402 16.5154C18.6042 16.0499 19.0231 15.8171 19.4971 15.8171C20.0895 15.8171 20.8682 16.143 21.833 16.7947C22.7979 17.4464 23.3988 17.8738 23.6357 18.0769C24.042 18.3816 24.4144 18.6863 24.7529 18.991C25.0915 19.2957 25.3877 19.5834 25.6416 19.8542C25.9971 20.2266 26.2552 20.561 26.416 20.8572C26.5768 21.1534 26.6572 21.42 26.6572 21.657C26.6572 22.1479 26.471 22.698 26.0986 23.3074C25.7262 23.9167 25.3369 24.433 24.9307 24.8562C24.6598 25.1609 24.1986 25.5714 23.5469 26.0876C22.8952 26.6039 22.1969 26.8621 21.4521 26.8621ZM5.83691 2.15698C5.66764 2.17391 5.37142 2.2924 4.94824 2.51245C4.52507 2.7325 4.05957 3.07104 3.55176 3.52808C3.06087 3.98511 2.67578 4.43791 2.39648 4.88647C2.11719 5.33504 1.97754 5.7286 1.97754 6.06714C1.97754 8.25073 2.58268 10.4936 3.79297 12.7957C5.00326 15.0977 6.55208 17.1967 8.43945 19.0925C10.3268 20.9884 12.4215 22.5414 14.7236 23.7517C17.0257 24.962 19.2686 25.5671 21.4521 25.5671C21.7907 25.5671 22.1842 25.4275 22.6328 25.1482C23.0814 24.8689 23.5342 24.4838 23.9912 23.9929C24.4482 23.4851 24.791 23.0154 25.0195 22.5837C25.248 22.1521 25.3623 21.8516 25.3623 21.6824C25.3454 21.547 25.1423 21.2507 24.7529 20.7937C24.3636 20.3367 23.7035 19.7442 22.7725 19.0164C21.96 18.407 21.2575 17.9373 20.665 17.6072C20.0726 17.2771 19.6917 17.1121 19.5225 17.1121C19.5055 17.1121 19.459 17.1375 19.3828 17.1882C19.3066 17.239 19.1924 17.3575 19.04 17.5437C18.9215 17.713 18.7946 17.9034 18.6592 18.115C18.5238 18.3266 18.3883 18.5424 18.2529 18.7625C17.8975 19.3549 17.5293 19.8881 17.1484 20.3621C16.7676 20.836 16.3317 21.073 15.8408 21.073C15.7562 21.073 15.6758 21.0645 15.5996 21.0476C15.5234 21.0307 15.443 21.0053 15.3584 20.9714C14.512 20.6329 13.6403 20.142 12.7432 19.4988C11.846 18.8555 10.9954 18.1319 10.1914 17.3279C9.38737 16.5238 8.66374 15.6733 8.02051 14.7761C7.37728 13.879 6.88639 13.0072 6.54785 12.1609C6.46322 11.9578 6.44629 11.6996 6.49707 11.3865C6.54785 11.0733 6.77637 10.739 7.18262 10.3835C7.38574 10.1804 7.62695 9.98999 7.90625 9.81226C8.18555 9.63452 8.46908 9.45255 8.75684 9.26636C8.97689 9.13094 9.19271 8.99552 9.4043 8.86011C9.61589 8.72469 9.80632 8.59774 9.97559 8.47925C10.1618 8.3269 10.2803 8.21265 10.3311 8.13647C10.3818 8.0603 10.4072 8.02222 10.4072 8.02222C10.4072 7.85295 10.2422 7.46786 9.91211 6.86694C9.58203 6.26603 9.1123 5.56779 8.50293 4.77222C7.77506 3.8243 7.18262 3.15991 6.72559 2.77905C6.26855 2.39819 5.97233 2.19084 5.83691 2.15698Z" fill="#C19D56"/>
</g>
<defs>
<clipPath id="clip0_5626_4456">
<rect width="26" height="26" fill="white" transform="matrix(1 0 0 -1 0.657227 26.8748)"/>
</clipPath>
</defs>
</svg>
