<svg width="27" height="27" viewBox="0 0 27 27" fill="none" xmlns="http://www.w3.org/2000/svg">
<g id="Icon" clip-path="url(#clip0_5626_4466)">
<path id="Vector" d="M15.9424 19.0671H5.53223C4.99056 19.0671 4.5293 18.8767 4.14844 18.4958C3.76758 18.115 3.57715 17.6537 3.57715 17.1121V6.72729C3.57715 6.18563 3.76758 5.72437 4.14844 5.34351C4.5293 4.96265 4.99056 4.77222 5.53223 4.77222H22.4424C22.984 4.77222 23.4453 4.96265 23.8262 5.34351C24.207 5.72437 24.3975 6.18563 24.3975 6.72729V8.02222C24.3975 8.19149 24.334 8.3396 24.207 8.46655C24.0801 8.59351 23.9235 8.65698 23.7373 8.65698C23.5511 8.65698 23.3945 8.59351 23.2676 8.46655C23.1406 8.3396 23.0771 8.19149 23.0771 8.02222V6.72729C23.0771 6.5411 23.0137 6.38452 22.8867 6.25757C22.7598 6.13062 22.6117 6.06714 22.4424 6.06714H5.53223C5.36296 6.06714 5.21484 6.13062 5.08789 6.25757C4.96094 6.38452 4.89746 6.5411 4.89746 6.72729V17.1121C4.89746 17.2983 4.96094 17.4548 5.08789 17.5818C5.21484 17.7087 5.36296 17.7722 5.53223 17.7722H15.9424C16.1117 17.7722 16.2598 17.8357 16.3867 17.9626C16.5137 18.0896 16.5771 18.2377 16.5771 18.407C16.5771 18.5932 16.5137 18.7498 16.3867 18.8767C16.2598 19.0037 16.1117 19.0671 15.9424 19.0671ZM15.9424 24.2722H2.94238C2.40072 24.2722 1.93945 24.0818 1.55859 23.7009C1.17773 23.3201 0.987305 22.8588 0.987305 22.3171V21.0222C0.987305 20.836 1.05078 20.6794 1.17773 20.5525C1.30469 20.4255 1.46126 20.3621 1.64746 20.3621H15.9424C16.1117 20.3621 16.2598 20.4255 16.3867 20.5525C16.5137 20.6794 16.5771 20.836 16.5771 21.0222C16.5771 21.1915 16.5137 21.3396 16.3867 21.4666C16.2598 21.5935 16.1117 21.657 15.9424 21.657H2.28223V22.3171C2.28223 22.5033 2.3457 22.6599 2.47266 22.7869C2.59961 22.9138 2.75618 22.9773 2.94238 22.9773H15.9424C16.1117 22.9773 16.2598 23.0408 16.3867 23.1677C16.5137 23.2947 16.5771 23.4428 16.5771 23.6121C16.5771 23.7983 16.5137 23.9548 16.3867 24.0818C16.2598 24.2087 16.1117 24.2722 15.9424 24.2722ZM25.0322 24.2722H19.8271C19.3024 24.2722 18.8496 24.0818 18.4688 23.7009C18.0879 23.3201 17.8975 22.8588 17.8975 22.3171V11.907C17.8975 11.3822 18.0879 10.9294 18.4688 10.5486C18.8496 10.1677 19.3024 9.97729 19.8271 9.97729H25.0322C25.5739 9.97729 26.0352 10.1677 26.416 10.5486C26.7969 10.9294 26.9873 11.3822 26.9873 11.907V22.3171C26.9873 22.8588 26.7969 23.3201 26.416 23.7009C26.0352 24.0818 25.5739 24.2722 25.0322 24.2722ZM19.8271 11.2722C19.6579 11.2722 19.5098 11.3357 19.3828 11.4626C19.2559 11.5896 19.1924 11.7377 19.1924 11.907V22.3171C19.1924 22.5033 19.2559 22.6599 19.3828 22.7869C19.5098 22.9138 19.6579 22.9773 19.8271 22.9773H25.0322C25.2184 22.9773 25.375 22.9138 25.502 22.7869C25.6289 22.6599 25.6924 22.5033 25.6924 22.3171V11.907C25.6924 11.7377 25.6289 11.5896 25.502 11.4626C25.375 11.3357 25.2184 11.2722 25.0322 11.2722H19.8271ZM22.4424 21.657C22.3577 21.657 22.2731 21.6401 22.1885 21.6062C22.1038 21.5723 22.0361 21.53 21.9854 21.4792C21.9176 21.4115 21.8669 21.3396 21.833 21.2634C21.7992 21.1873 21.7822 21.1069 21.7822 21.0222C21.7822 20.9376 21.7992 20.8529 21.833 20.7683C21.8669 20.6837 21.9176 20.616 21.9854 20.5652C22.0361 20.4975 22.1038 20.4467 22.1885 20.4128C22.2731 20.379 22.3577 20.3621 22.4424 20.3621C22.527 20.3621 22.6074 20.379 22.6836 20.4128C22.7598 20.4467 22.8317 20.4975 22.8994 20.5652C22.9502 20.616 22.9925 20.6837 23.0264 20.7683C23.0602 20.8529 23.0771 20.9376 23.0771 21.0222C23.0771 21.1069 23.0602 21.1873 23.0264 21.2634C22.9925 21.3396 22.9502 21.4115 22.8994 21.4792C22.8317 21.53 22.7598 21.5723 22.6836 21.6062C22.6074 21.6401 22.527 21.657 22.4424 21.657Z" fill="#C19D56"/>
</g>
<defs>
<clipPath id="clip0_5626_4466">
<rect width="26" height="26" fill="white" transform="matrix(1 0 0 -1 0.987305 26.8748)"/>
</clipPath>
</defs>
</svg>
