<svg width="88" height="104" viewBox="0 0 88 104" fill="none" xmlns="http://www.w3.org/2000/svg">
<path d="M0.9 62C0.5 62 0.3 61.7 0.3 61.1C0.3 60.5 0.5 60.2 0.9 60.2C4.6 60.2 7.45 59.95 9.45 59.45C11.45 58.95 12.9 57.95 13.8 56.45C14.8 54.95 15.55 52.75 16.05 49.85L21.15 21.65C21.85 17.45 22.1 14.55 21.9 12.95C21.7 11.25 20.65 10.6 18.75 11C16.85 11.4 13.65 12.65 9.15 14.75C8.75 14.95 8.45 14.8 8.25 14.3C8.05 13.7 8.15 13.35 8.55 13.25L29.85 2.75C30.15 2.55 30.45 2.55 30.75 2.75C31.05 2.95 31.1 3.15 30.9 3.35L22.65 49.85C22.15 52.75 22.05 54.95 22.35 56.45C22.75 57.95 23.9 58.95 25.8 59.45C27.7 59.95 30.6 60.2 34.5 60.2C34.8 60.2 34.95 60.5 34.95 61.1C34.95 61.7 34.8 62 34.5 62C32.2 62 29.65 61.95 26.85 61.85C24.05 61.75 21.05 61.7 17.85 61.7C14.75 61.7 11.7 61.75 8.7 61.85C5.8 61.95 3.2 62 0.9 62ZM37.9523 103.4C37.5523 103.5 37.3023 103.25 37.2023 102.65C37.0023 102.05 37.0023 101.7 37.2023 101.6C45.9023 99 52.8523 95.55 58.0523 91.25C63.3523 86.95 67.3023 82.4 69.9023 77.6C72.5023 72.8 74.1523 68.35 74.8523 64.25C75.3523 61.25 75.3523 58.35 74.8523 55.55C74.4523 52.65 73.3023 50.3 71.4023 48.5C69.6023 46.6 66.7523 45.65 62.8523 45.65C61.8523 45.65 60.7523 45.75 59.5523 45.95C58.4523 46.15 57.2523 46.4 55.9523 46.7C55.6523 46.8 55.4023 46.5 55.2023 45.8C55.0023 45.1 55.0523 44.7 55.3523 44.6C63.1523 42.6 68.8523 39.75 72.4523 36.05C76.0523 32.25 78.3523 27.35 79.3523 21.35C80.2523 16.55 79.9523 12.65 78.4523 9.65C77.0523 6.65 74.1523 5.15 69.7523 5.15C65.7523 5.15 62.1523 6.6 58.9523 9.5C55.7523 12.3 52.8523 16.95 50.2523 23.45C50.0523 23.75 49.6523 23.8 49.0523 23.6C48.5523 23.3 48.3523 23 48.4523 22.7L57.4523 0.799997C57.6523 0.499998 58.0023 0.499998 58.5023 0.799997C59.0023 0.999997 59.1523 1.3 58.9523 1.7C58.2523 3.3 58.1023 4.35 58.5023 4.85C59.0023 5.25 59.5523 5.45 60.1523 5.45C61.5523 5.45 63.5023 4.9 66.0023 3.8C68.5023 2.7 71.3023 2.15 74.4023 2.15C77.9023 2.15 80.6523 3 82.6523 4.7C84.7523 6.3 86.1523 8.45 86.8523 11.15C87.5523 13.75 87.6023 16.6 87.0023 19.7C86.4023 23.3 85.0523 26.8 82.9523 30.2C80.8523 33.6 78.1523 36.55 74.8523 39.05C71.6523 41.55 68.0023 43.25 63.9023 44.15L66.6023 42.35C71.3023 42.35 74.9523 43.4 77.5523 45.5C80.2523 47.5 82.0523 50.15 82.9523 53.45C83.9523 56.65 84.1023 60.1 83.4023 63.8C82.6023 68.4 80.3523 73.25 76.6523 78.35C73.0523 83.45 68.0523 88.2 61.6523 92.6C55.2523 97.1 47.3523 100.7 37.9523 103.4Z" fill="#C19D56"/>
</svg>
