<svg width="156" height="106" viewBox="0 0 156 106" fill="none" xmlns="http://www.w3.org/2000/svg">
<path d="M0.271875 105.25C0.071875 105.35 -0.128125 105.25 -0.328125 104.95C-0.628125 104.65 -0.678125 104.4 -0.478125 104.2L51.5719 13.3C52.1719 12.6 52.0719 12.25 51.2719 12.25C41.6719 12.25 34.1219 12.35 28.6219 12.55C23.1219 12.75 18.9719 13.2 16.1719 13.9C13.4719 14.6 11.5219 15.65 10.3219 17.05C9.12188 18.45 7.97188 20.3 6.87188 22.6C6.77188 23 6.42188 23.1 5.82188 22.9C5.22188 22.7 4.97188 22.4 5.07188 22L13.1719 1.75C13.2719 1.45 13.6219 1.4 14.2219 1.6C14.8219 1.8 15.0719 2 14.9719 2.2C14.3719 3.9 14.3719 5 14.9719 5.5C15.6719 5.9 17.5219 6.1 20.5219 6.1C21.9219 6.1 24.0219 6.1 26.8219 6.1C29.6219 6.1 32.7719 6.1 36.2719 6.1C39.7719 6.1 43.2719 6.1 46.7719 6.1C50.3719 6.1 53.5719 6.1 56.3719 6.1C56.8719 6.1 57.1719 6.35 57.2719 6.85C57.4719 7.25 57.4719 7.65 57.2719 8.05L11.6719 97C10.7719 98.7 9.57188 99.9 8.07188 100.6L0.271875 105.25ZM59.9332 64C59.5332 64 59.3332 63.7 59.3332 63.1C59.3332 62.5 59.5332 62.2 59.9332 62.2C63.6332 62.2 66.4832 61.95 68.4832 61.45C70.4832 60.95 71.9332 59.95 72.8332 58.45C73.8332 56.95 74.5832 54.75 75.0832 51.85L80.1832 23.65C80.8832 19.45 81.1332 16.55 80.9332 14.95C80.7332 13.25 79.6832 12.6 77.7832 13C75.8832 13.4 72.6832 14.65 68.1832 16.75C67.7832 16.95 67.4832 16.8 67.2832 16.3C67.0832 15.7 67.1832 15.35 67.5832 15.25L88.8832 4.75C89.1832 4.55 89.4832 4.55 89.7832 4.75C90.0832 4.95 90.1332 5.15 89.9332 5.35L81.6832 51.85C81.1832 54.75 81.0832 56.95 81.3832 58.45C81.7832 59.95 82.9332 60.95 84.8332 61.45C86.7332 61.95 89.6332 62.2 93.5332 62.2C93.8332 62.2 93.9832 62.5 93.9832 63.1C93.9832 63.7 93.8332 64 93.5332 64C91.2332 64 88.6832 63.95 85.8832 63.85C83.0832 63.75 80.0832 63.7 76.8832 63.7C73.7832 63.7 70.7332 63.75 67.7332 63.85C64.8332 63.95 62.2332 64 59.9332 64ZM97.7355 105.25C97.3355 105.35 97.0355 105.15 96.8355 104.65C96.5355 104.15 96.5855 103.8 96.9855 103.6C105.886 99.3 112.986 95 118.286 90.7C123.586 86.5 127.536 82.25 130.136 77.95C132.736 73.75 134.386 69.5 135.086 65.2C136.486 57 134.986 50.6 130.586 46C126.286 41.3 119.186 38.95 109.286 38.95C108.286 38.95 107.986 38.35 108.386 37.15L117.386 10.45C117.586 9.75 117.786 9.35 117.986 9.25C118.186 9.05 118.686 8.9 119.486 8.8C127.386 7.8 133.536 7 137.936 6.4C142.336 5.7 145.536 5.15 147.536 4.75C149.636 4.25 151.036 3.7 151.736 3.1C152.436 2.4 153.036 1.55 153.536 0.549999C153.736 0.249997 154.086 0.199996 154.586 0.399996C155.086 0.599997 155.236 0.849996 155.036 1.15L150.686 10.45C150.086 11.75 149.486 12.55 148.886 12.85C148.286 13.05 147.436 13.15 146.336 13.15L120.686 13.75C119.586 13.75 118.736 14.5 118.136 16L110.786 38.2L111.536 34.6C120.236 34.6 127.086 35.8 132.086 38.2C137.086 40.6 140.486 43.9 142.286 48.1C144.086 52.3 144.486 57.15 143.486 62.65C142.486 68.35 140.236 73.5 136.736 78.1C133.236 82.8 128.286 87.3 121.886 91.6C115.586 96 107.536 100.55 97.7355 105.25Z" fill="#C19D56"/>
</svg>
