<svg width="118" height="116" viewBox="0 0 118 116" fill="none" xmlns="http://www.w3.org/2000/svg">
<path d="M25.6805 88.95C19.9805 88.95 15.1805 87.8 11.2805 85.5C7.48047 83.2 4.78047 80.2 3.18047 76.5C1.58047 72.8 1.13047 68.85 1.83047 64.65C2.63047 59.95 4.58047 55.6 7.68047 51.6C10.8805 47.6 14.5805 44.1 18.7805 41.1C22.9805 38.1 27.0305 35.95 30.9305 34.65L31.6805 36C25.8805 38.3 21.1305 41.6 17.4305 45.9C13.7305 50.2 11.3805 55.15 10.3805 60.75C9.58047 65.15 9.83047 69.3 11.1305 73.2C12.4305 77.1 14.6805 80.3 17.8805 82.8C21.0805 85.2 25.0805 86.4 29.8805 86.4C34.4805 86.4 38.6305 84.75 42.3305 81.45C46.0305 78.05 48.3805 73.3 49.3805 67.2C50.2805 62.4 50.0305 58.35 48.6305 55.05C47.3305 51.75 45.3305 48.95 42.6305 46.65C40.0305 44.25 37.1805 42.1 34.0805 40.2C30.9805 38.3 28.0805 36.4 25.3805 34.5C22.6805 32.5 20.5805 30.25 19.0805 27.75C17.5805 25.25 17.1305 22.2 17.7305 18.6C18.4305 14.6 19.9805 11.3 22.3805 8.7C24.8805 6.1 27.7805 4.14999 31.0805 2.84999C34.3805 1.55 37.5305 0.9 40.5305 0.9C44.6305 0.9 47.9305 1.85 50.4305 3.75C53.0305 5.55 54.8805 7.8 55.9805 10.5C57.0805 13.1 57.3305 15.6 56.7305 18C56.0305 21 53.9805 24.3 50.5805 27.9C47.1805 31.4 42.9805 34.45 37.9805 37.05L37.3805 36.15C41.0805 33.55 43.8805 30.95 45.7805 28.35C47.7805 25.75 49.0305 22.9 49.5305 19.8C50.1305 16.9 49.9805 14.2 49.0805 11.7C48.2805 9.1 46.8805 7.05 44.8805 5.54999C42.8805 3.95 40.3805 3.15 37.3805 3.15C34.1805 3.15 31.3805 4.15 28.9805 6.14999C26.6805 8.04999 25.2805 10.85 24.7805 14.55C24.1805 18.05 24.6305 21.05 26.1305 23.55C27.7305 26.05 29.8805 28.3 32.5805 30.3C35.3805 32.3 38.3305 34.3 41.4305 36.3C44.6305 38.2 47.5305 40.35 50.1305 42.75C52.8305 45.05 54.8805 47.85 56.2805 51.15C57.7805 54.35 58.1305 58.25 57.3305 62.85C56.4305 67.85 54.3805 72.35 51.1805 76.35C47.9805 80.25 44.1305 83.35 39.6305 85.65C35.2305 87.85 30.5805 88.95 25.6805 88.95ZM93.3949 115.2C92.3949 115.7 91.9449 115.4 92.0449 114.3L105.545 38.25L108.545 36.3L67.2949 80.4C66.7949 81.1 66.9949 81.45 67.8949 81.45C74.8949 81.45 81.0949 81.4 86.4949 81.3C91.8949 81.2 96.9949 81.1 101.795 81C106.595 80.8 111.595 80.65 116.795 80.55C117.095 80.55 117.195 81.1 117.095 82.2C116.995 83.2 116.795 84.25 116.495 85.35C116.195 86.35 115.895 86.85 115.595 86.85C110.795 86.55 105.845 86.35 100.745 86.25C95.6449 86.05 89.8949 85.95 83.4949 85.95C77.0949 85.85 69.5449 85.8 60.8449 85.8C60.4449 85.8 60.1949 85.6 60.0949 85.2C59.8949 84.8 59.9949 84.4 60.3949 84L112.145 27.6C112.345 27.3 112.745 27.2 113.345 27.3C113.945 27.4 114.195 27.7 114.095 28.2L99.3949 110.7C99.1949 111.8 98.7449 112.5 98.0449 112.8L93.3949 115.2Z" fill="#C19D56"/>
</svg>
