<svg width="126" height="142" viewBox="0 0 126 142" fill="none" xmlns="http://www.w3.org/2000/svg">
<path d="M-3.0418 141.25C-3.4418 141.35 -3.7418 141.1 -3.9418 140.5C-4.1418 139.9 -4.0418 139.55 -3.6418 139.45C3.7582 136.15 10.3582 132.05 16.1582 127.15C22.0582 122.35 27.1582 117.05 31.4582 111.25C35.7582 105.55 39.3082 99.7 42.1082 93.7C44.9082 87.6 46.9582 81.7 48.2582 76C49.5582 70.5 49.7082 65.25 48.7082 60.25C47.7082 55.15 45.6582 51 42.5582 47.8C39.5582 44.5 35.4582 42.85 30.2582 42.85C26.5582 42.85 23.2582 44.05 20.3582 46.45C17.5582 48.75 15.6082 52.5 14.5082 57.7C13.7082 61.7 13.7082 65.45 14.5082 68.95C15.4082 72.45 16.9582 75.3 19.1582 77.5C21.4582 79.6 24.2082 80.65 27.4082 80.65C29.8082 80.65 32.0582 80.05 34.1582 78.85C36.2582 77.55 38.5582 75.65 41.0582 73.15C41.3582 72.95 41.7082 73 42.1082 73.3C42.6082 73.5 42.7582 73.75 42.5582 74.05C39.7582 77.45 36.6582 80.05 33.2582 81.85C29.8582 83.55 26.4082 84.4 22.9082 84.4C18.3082 84.4 14.6582 83.2 11.9582 80.8C9.2582 78.3 7.4082 75.3 6.4082 71.8C5.5082 68.2 5.3582 64.8 5.9582 61.6C6.7582 57.6 8.5582 54 11.3582 50.8C14.1582 47.5 17.5582 44.9 21.5582 43C25.6582 41.1 30.0082 40.15 34.6082 40.15C40.2082 40.15 44.8582 41.55 48.5582 44.35C52.2582 47.15 54.8082 51.05 56.2082 56.05C57.6082 60.95 57.7082 66.7 56.5082 73.3C55.3082 80.2 53.0082 87.1 49.6082 94C46.3082 100.8 42.0582 107.25 36.8582 113.35C31.6582 119.45 25.6582 124.9 18.8582 129.7C12.1582 134.5 4.8582 138.35 -3.0418 141.25ZM91.9 101.95C83.4 101.95 77.05 99.1 72.85 93.4C68.65 87.6 67.65 79.4 69.85 68.8C71.05 61.9 73.35 55.05 76.75 48.25C80.15 41.35 84.45 34.85 89.65 28.75C94.85 22.65 100.8 17.2 107.5 12.4C114.3 7.59999 121.65 3.75 129.55 0.849998C129.95 0.749993 130.2 0.999993 130.3 1.6C130.5 2.1 130.45 2.45 130.15 2.64999C120.35 7.05 111.8 12.75 104.5 19.75C97.2 26.75 91.3 34.3 86.8 42.4C82.4 50.5 79.5 58.4 78.1 66.1C76.8 72.2 76.65 77.75 77.65 82.75C78.65 87.75 80.7 91.75 83.8 94.75C87 97.75 91.15 99.25 96.25 99.25C100.35 99.25 103.75 97.8 106.45 94.9C109.25 91.9 111.1 87.8 112 82.6C113 76.7 112.65 71.7 110.95 67.6C109.25 63.5 105.9 61.45 100.9 61.45C98.4 61.45 95.95 62.05 93.55 63.25C91.15 64.45 88.35 66.4 85.15 69.1C84.95 69.4 84.65 69.4 84.25 69.1C83.95 68.7 83.85 68.35 83.95 68.05C90.25 61.15 97.45 57.7 105.55 57.7C109.95 57.7 113.3 58.75 115.6 60.85C118 62.85 119.55 65.45 120.25 68.65C120.95 71.85 121 75.2 120.4 78.7C119.7 83 117.95 86.9 115.15 90.4C112.45 93.9 109.05 96.7 104.95 98.8C100.85 100.9 96.5 101.95 91.9 101.95Z" fill="#C19D56"/>
</svg>
