<svg width="159" height="165" viewBox="0 0 159 165" fill="none" xmlns="http://www.w3.org/2000/svg">
<g id="Group">
<g id="Group_2">
<path id="Vector" d="M226.943 27.5899C225.757 26.6914 224.418 26.2272 223.179 25.519C221.437 24.524 219.852 23.264 218.271 22.003C216.226 20.3718 214.021 19.0082 211.407 18.3255C205.377 16.7514 199.34 15.25 193.444 13.1353C186.607 10.6828 179.596 8.75146 172.306 7.90382C166.048 7.1764 159.925 5.48639 153.612 5.01782C152.593 4.94235 151.519 5.45041 150.574 4.90199C148.304 3.58315 145.692 2.90399 143.598 1.27891C140.444 -1.16835 135.212 0.202256 132.91 2.81887C131.84 4.03417 130.992 3.94993 129.82 3.25147C124.296 -0.0460685 118.471 -0.346164 112.397 1.443C109.559 2.27923 107.736 3.96485 107.074 7.18078C106.326 6.88595 105.733 6.592 105.106 6.41738C102.887 5.79964 100.871 4.44483 98.4807 4.47554C92.9289 4.54749 88.6355 7.18078 85.4037 11.4602C84.2016 13.0519 83.0881 13.5653 81.2138 13.2099C77.6741 12.5386 74.1888 12.6694 70.8298 14.2409C67.5402 15.78 64.3673 17.3972 63.1186 21.165C61.2593 20.6614 59.5491 20.4359 57.7529 20.9158C50.9999 22.7182 46.6476 26.973 44.6049 33.6102C44.3039 34.5868 43.9222 34.9834 42.7815 35.137C36.8691 35.9364 31.7315 38.0353 29.9792 44.4768C29.2316 47.2251 28.1058 49.0844 24.8863 48.6501C24.559 48.6062 24.1966 48.8712 23.843 48.9616C17.3234 50.6156 11.3584 59.6693 12.2709 66.0178C12.3683 66.6953 12.2411 67.1744 11.5812 67.521C9.4244 68.6555 7.89497 70.5175 6.38923 72.3339C3.60853 75.6893 1.16388 79.3475 0.540879 83.7366C-0.140916 88.5399 1.02261 93.008 4.24292 96.6653C0.853254 102.493 -0.521719 108.663 0.176748 115.26C0.781325 120.974 3.64537 124.293 9.10763 125.704C8.84702 128.537 8.86897 131.394 9.30683 134.247C9.85701 137.832 11.2583 141.007 14.2663 143.082C15.464 143.907 15.9045 144.684 15.9177 145.975C15.9361 147.762 16.8417 149.122 17.792 150.609C19.6575 153.526 22.1548 155.783 24.4722 158.269C26.6737 160.63 29.1526 161.209 31.9114 160.431C40.2938 158.065 48.2428 154.526 56.227 151.089C60.1563 149.398 63.7232 147.064 67.4437 145.008C70.5201 143.308 73.765 141.887 76.7159 140.011C84.2472 135.222 91.8128 130.485 99.188 125.445C105.478 121.148 112.147 117.437 118.454 113.139C124.37 109.106 130.601 105.532 136.694 101.758C140.441 99.4372 144.271 97.2383 147.917 94.7682C151.228 92.5245 154.451 90.1229 157.781 87.9222C164.605 83.4128 171.002 78.3472 177.368 73.2614C185.033 67.1384 192.651 60.9689 200.76 55.4364C204.783 52.6926 208.626 49.7136 212.532 46.8126C217.456 43.1545 222.648 39.8569 227.342 35.8864C229.97 33.6655 229.678 29.6616 226.943 27.5899Z" fill="white"/>
<path id="Vector_2" d="M188.287 88.5027C165.228 88.6404 151.449 105.1 149.796 125.883C151.143 148.194 166.933 163.791 187.719 163.957C209.294 164.13 226.061 146.967 225.96 126.733C225.86 104.727 209.165 88.3789 188.287 88.5027Z" fill="white"/>
</g>
<g id="Group_3">
<path id="Vector_3" d="M107.074 7.49924C107.737 4.28331 109.559 2.59769 112.397 1.76146C118.472 -0.0277031 124.297 0.272389 129.821 3.56993C130.993 4.26927 131.841 4.35263 132.911 3.13733C135.213 0.520713 140.445 -0.849016 143.598 1.59737C145.693 3.22245 148.303 3.90161 150.575 5.22045C151.521 5.76975 152.594 5.26081 153.613 5.33628C159.925 5.80484 166.048 7.49398 172.307 8.22228C179.596 9.06992 186.607 11.0012 193.444 13.4538C199.34 15.5685 205.378 17.0698 211.407 18.644C214.021 19.3267 216.226 20.6894 218.271 22.3215C219.851 23.5824 221.437 24.8425 223.179 25.8375C224.417 26.5448 225.757 27.0098 226.943 27.9083C229.678 29.9792 229.97 33.984 227.344 36.2057C222.651 40.1763 217.458 43.4738 212.533 47.132C208.628 50.0329 204.784 53.0119 200.762 55.7558C192.653 61.2882 185.035 67.4577 177.37 73.5807C171.003 78.6665 164.607 83.7322 157.783 88.2415C154.453 90.4422 151.23 92.8429 147.918 95.0866C144.272 97.5576 140.443 99.7557 136.695 102.077C130.602 105.851 124.372 109.425 118.455 113.457C112.149 117.755 105.478 121.467 99.1895 125.764C91.8143 130.802 84.2488 135.54 76.7175 140.329C73.7665 142.205 70.5216 143.627 67.4452 145.326C63.7239 147.382 60.157 149.716 56.2285 151.407C48.2444 154.843 40.2963 158.384 31.9138 160.75C29.155 161.528 26.6762 160.949 24.4746 158.587C22.1572 156.102 19.6599 153.846 17.7944 150.928C16.8441 149.442 15.9386 148.082 15.9201 146.294C15.907 145.003 15.4665 144.227 14.2687 143.401C11.2608 141.327 9.85945 138.151 9.30927 134.567C8.87141 131.714 8.84949 128.856 9.1101 126.024C3.64784 124.613 0.783765 121.293 0.179187 115.579C-0.51928 108.982 0.85572 102.812 4.24539 96.9846C1.02507 93.3282 -0.13845 88.8592 0.543345 84.056C1.16635 79.6668 3.61096 76.0087 6.39167 72.6532C7.89653 70.8369 9.42686 68.9749 11.5837 67.8403C12.2435 67.4928 12.3708 67.0146 12.2734 66.3363C11.3608 59.9878 17.3267 50.9341 23.8455 49.28C24.2 49.1905 24.5615 48.9246 24.8888 48.9685C28.1082 49.402 29.234 47.5426 29.9816 44.7944C31.7339 38.3529 36.8715 36.254 42.783 35.4546C43.9238 35.3002 44.3054 34.9035 44.6064 33.9278C46.6492 27.2906 51.0005 23.0349 57.7536 21.2334C59.5497 20.7543 61.2608 20.9798 63.1193 21.4826C64.368 17.7148 67.5418 16.0976 70.8305 14.5585C74.1895 12.9869 77.6748 12.8571 81.2145 13.5283C83.0888 13.8837 84.2023 13.3704 85.4036 11.7787C88.6353 7.49924 92.9296 4.86595 98.4805 4.794C100.872 4.76329 102.888 6.1181 105.106 6.73584C105.733 6.91046 106.327 7.20529 107.074 7.49924ZM124.139 105.705C126.737 104.521 129.07 102.945 131.476 101.483C137.082 98.0753 142.755 94.783 148.269 91.2161C156.449 85.9258 164.34 80.2433 171.991 74.2292C180.779 67.3208 189.403 60.2089 198.592 53.8157C205.232 49.1958 211.752 44.4022 218.287 39.6314C220.746 37.836 223.133 35.9372 225.471 33.9857C226.438 33.1784 226.725 32.2667 225.845 30.9058C224.242 28.4269 221.636 27.4819 219.373 25.9884C216.281 23.9474 213.326 21.5686 209.542 20.9886C205.083 20.3042 200.729 19.1994 196.476 17.7806C190.992 15.951 185.448 14.3698 179.848 12.9633C175.602 11.8971 171.203 11.7918 166.93 10.9223C161.09 9.73416 155.288 8.38988 149.246 8.85581C146.593 9.06026 143.933 9.00059 141.259 8.88389C137.926 8.73823 134.506 8.22228 131.228 9.18837C125.006 11.0223 118.554 11.7085 112.23 13.015C106.289 14.2426 100.438 15.6439 94.8065 17.8122C91.5432 19.0687 88.1307 19.7865 84.8867 21.1632C80.5204 23.0156 75.9453 24.3362 71.7738 26.715C65.6719 30.195 59.5998 33.6935 54.1042 38.1116C50.9944 40.6115 48.1926 43.4641 45.1636 46.0229C39.7742 50.5752 34.8209 55.4346 30.6643 61.1584C27.8459 65.0394 26.1795 69.4268 24.2842 73.7369C22.8232 77.0599 21.278 80.2793 21.1885 84.0867C21.1323 86.4453 21.4368 88.8004 21.1823 91.1494C20.7787 94.8848 20.5163 98.5869 21.1736 102.356C21.7509 105.665 22.087 109.002 22.0089 112.432C21.9343 115.718 23.1593 118.944 24.1052 122.161C25.754 127.765 26.8359 133.521 28.6435 139.106C29.3639 141.333 29.6201 143.865 28.6136 146.397C27.5651 149.032 27.0807 151.895 26.3971 154.67C25.8364 156.948 27.2869 158.579 29.6798 158.465C33.7723 158.27 37.5761 156.723 41.2001 155.193C48.0435 152.305 55.0316 149.674 61.295 145.457C66.108 142.216 71.3833 139.672 76.3595 136.661C81.0162 133.844 85.5712 130.856 90.1314 127.881C94.5793 124.979 98.8859 121.852 103.418 119.093C108.664 115.9 113.763 112.483 118.958 109.213C119.369 108.955 120.043 108.618 120.052 108.301C120.116 106.216 121.956 105.688 123.164 104.696C129.045 99.8636 133.868 93.967 139.357 88.7443C139.911 88.2169 140.325 87.4886 141.765 87.3412C136.701 94.6277 130.66 100.38 124.139 105.705ZM19.0861 75.7182C15.7675 76.9949 13.1605 79.2957 9.98492 80.5127C10.6974 78.7999 12.4217 78.219 13.5589 77.0362C13.4334 76.5869 12.4173 76.4149 13.0482 75.8788C15.4051 73.8729 17.4311 71.1992 21.2139 71.5625C22.008 69.719 22.8188 67.835 23.6445 65.9178C22.71 65.6142 21.9993 65.9774 21.3262 66.1485C17.3416 67.1646 13.3974 68.4115 10.4588 71.466C7.69911 74.3353 5.53088 77.668 3.95669 81.3419C1.84374 86.2707 3.10379 90.7791 5.81693 95.5526C7.00151 93.1615 10.0674 92.2822 9.09604 89.1225C9.01443 88.8575 9.45492 88.3696 9.73922 88.0651C11.8197 85.8328 13.8546 83.5277 16.7695 82.3282C17.7646 81.9184 18.0524 81.3314 17.5593 80.2907C13.3097 81.449 10.1534 84.4473 6.60051 86.9788C6.52154 86.5401 6.43995 86.3699 6.48909 86.3146C9.20662 83.2022 12.219 80.3443 16.1781 79.0395C17.955 78.4533 18.8439 77.718 19.0861 75.7182ZM9.31806 123.685C10.4816 118.64 12.1996 113.994 14.0239 109.38C12.2304 111.735 11.6618 114.723 9.80593 117.051C10.2868 113.791 11.4222 110.765 12.5928 107.729C13.744 104.744 15.9385 102.319 17.0758 99.3371C13.3079 103.622 10.6509 108.606 7.68506 113.438C7.94655 110.107 9.25487 107.128 10.557 104.147C10.4193 104.093 10.2824 104.04 10.1455 103.987C9.6199 104.906 9.09515 105.823 8.56955 106.742C9.95157 101.702 12.5076 97.3944 16.4027 93.96C17.4259 93.0579 17.7418 92.0769 17.5057 90.515C11.6828 93.7836 8.82229 99.2134 5.90294 104.654C5.8073 102.69 6.47855 101.001 7.17263 99.3634C7.86759 97.7252 8.83017 96.201 9.67517 94.6268C3.52761 100.903 1.7481 108.412 3.33983 116.877C3.96371 120.202 6.10125 122.166 9.31806 123.685ZM21.7237 57.9898C23.5989 56.4779 25.7627 55.2898 28.0328 55.0055C30.5932 54.6852 32.1639 53.3673 33.7451 51.3772C29.1489 49.9118 24.966 50.8761 21.1867 53.3331C17.1021 55.9883 13.9388 62.6588 14.6188 66.4127C15.2708 66.1477 15.9122 65.887 16.7186 65.558C15.3059 64.9701 15.477 64.2532 16.4861 63.7399C19.4546 62.2315 22.3108 60.3853 25.8005 60.2677C26.527 60.2431 27.2983 60.316 27.1667 59.1042C24.565 59.4148 22.2256 60.6477 19.6608 61.0478C22.0659 59.4955 24.5895 58.1653 27.4466 57.7906C28.7022 57.6257 29.3323 57 30.1887 55.7759C27.0614 56.2629 24.4816 57.4537 21.7237 57.9898ZM47.6398 31.8666C48.8981 31.9982 48.9631 30.7619 49.7773 30.4609C52.8283 29.3334 55.8626 28.2383 59.1742 29.2684C59.4813 29.3641 59.7753 29.4667 60.049 29.307C62.2927 27.9917 64.5285 26.6606 66.8608 25.2777C60.5808 20.5104 51.5139 24.0887 47.6398 31.8666ZM13.1868 130.465C12.8876 130.201 12.7455 130.138 12.7218 130.043C12.663 129.814 12.5936 129.558 12.641 129.337C13.5755 124.972 14.8075 120.67 17.504 117.063C18.7965 115.333 18.5718 113.85 18.0822 111.96C16.9564 113.091 16.1895 114.23 15.4639 115.422C11.9566 121.18 11.1046 127.457 11.9013 134.011C12.2348 136.752 12.9455 139.423 15.4463 141.447C15.6411 140.011 15.4656 138.778 15.9149 137.625C16.0087 137.383 16.1202 136.933 15.749 136.824C14.5644 136.477 15.0146 135.561 15.0514 134.848C15.2068 131.883 15.2813 128.907 15.8561 125.941C14.5987 127.213 14.4925 129.14 13.1868 130.465ZM47.9522 38.3187C41.731 35.6898 32.2788 40.6071 31.5619 46.6836C33.1967 45.7342 35.0174 45.3884 36.6969 44.6663C38.3685 43.9476 40.3691 45.1866 42.3171 43.7678C39.2398 42.9543 36.7382 44.1925 33.9934 44.647C35.3412 43.2483 38.8572 41.8645 41.1694 42.3884C43.4069 42.8955 44.5722 41.6803 45.7796 40.443C46.443 39.763 47.0616 39.0162 47.9522 38.3187ZM129.947 6.29711C122.546 0.653213 112.821 3.81474 109.271 7.50977C111.092 6.53227 112.63 6.66828 114.31 6.55947C113.925 6.06984 113.018 6.37871 113.162 5.39507C115.938 4.77733 118.468 5.55564 120.895 6.93941C121.363 7.20617 121.733 7.77564 122.321 7.67737C124.755 7.26934 127.178 6.80341 129.947 6.29711ZM107.633 10.509C103.236 6.55421 94.3836 5.8496 92.0592 9.11116C95.4997 9.48233 99.2018 8.82598 102.024 11.6427C102.089 11.7076 102.267 11.705 102.374 11.6734C104.055 11.1837 105.86 11.2417 107.633 10.509ZM84.534 17.1953C80.2879 13.4178 71.1841 15.386 67.5426 19.0038C69.0615 19.2223 70.0487 17.9727 71.2973 17.6226C73.8894 16.8961 76.513 17.3559 78.9778 18.4861C80.2151 19.0529 83.3591 18.3729 84.534 17.1953ZM145.397 5.48896C140.544 1.42626 137.173 1.67985 132.894 5.48896C137.273 5.48896 141.261 5.48896 145.397 5.48896ZM24.2114 136.67C23.9358 137.249 23.7375 137.562 23.6322 137.902C22.323 142.129 21.7466 146.448 21.9773 150.874C22.0107 151.507 22.4941 152.378 21.8045 152.74C20.7427 153.296 21.4868 153.743 21.7974 154.069C22.3731 154.673 23.0803 155.15 23.9174 155.831C24.1227 153.994 24.9923 152.53 24.7063 150.776C22.5433 150.495 22.6889 148.817 22.7925 147.322C22.9987 144.347 23.2444 141.354 24.5887 138.612C24.9256 137.925 24.5518 137.468 24.2114 136.67ZM20.1039 122.154C18.055 126.285 17.6014 130.694 16.7941 135.021C17.4601 133.678 18.349 132.281 18.3569 130.88C18.3683 128.903 19.1483 127.336 20.189 125.917C21.1463 124.61 21.1744 123.561 20.1039 122.154ZM20.8655 152.091C19.7011 146.914 20.0355 142.209 21.3955 137.549C19.6213 140.722 19.4502 144.238 19.3704 148.017C18.1533 147.181 18.9378 145.87 18.0779 145.411C17.4505 148.085 19.0527 149.869 20.8655 152.091ZM97.5767 13.2888C94.0984 12.4113 90.8307 11.9147 87.4788 12.22C89.3329 12.8404 91.4055 12.6675 92.9174 14.0785C93.7009 14.8095 94.3248 14.8296 95.1821 14.3461C95.8586 13.9644 96.6071 13.71 97.5767 13.2888ZM18.0129 144.517C18.4938 139.87 19.5739 135.383 22.6995 131.638C18.8728 135.059 17.2548 139.308 18.0129 144.517ZM100.324 12.2306C97.4126 10.523 94.1721 10.2527 90.9895 9.74293C90.0778 9.59727 89.6488 10.3291 89.1117 10.9758C92.9393 10.7064 96.629 11.3022 100.324 12.2306ZM39.6294 45.8658C36.6943 45.8193 34.4725 46.7336 32.256 47.6865C34.4515 46.652 37.2207 48.3148 39.6294 45.8658ZM48.2804 33.7286C50.4153 33.0494 52.9687 35.1677 55.0097 32.7125C52.6072 32.7888 50.3977 32.9529 48.2804 33.7286ZM14.682 108.332C14.9611 106.189 18.2305 105.796 17.6373 103.143C16.5273 104.799 15.0716 106.254 14.682 108.332ZM71.1859 18.5563C72.8347 18.508 74.4281 18.6817 75.7119 19.6864C76.6622 20.4297 77.3431 20.3621 78.1504 19.5355C75.8532 18.68 73.5463 18.3097 71.1859 18.5563ZM47.3125 35.8126C48.5392 35.8082 49.83 37.0814 51.2269 35.6397C49.7975 35.2431 48.5638 35.0571 47.3125 35.8126Z" fill="#D6D7D6"/>
<path id="Vector_4" d="M225.959 127.052C226.06 147.286 209.293 164.448 187.718 164.276C166.933 164.109 151.142 148.513 149.795 126.202C151.447 105.419 165.227 88.9593 188.286 88.8215C209.164 88.6978 225.859 105.046 225.959 127.052ZM222.164 120.826C222.245 120.473 222.419 120.113 222.393 119.768C221.834 112.404 218.375 106.393 213.306 101.304C205.703 93.6722 196.386 90.229 185.623 90.7195C181.366 90.9134 177.227 91.8497 173.471 93.7827C169.807 95.6684 166.067 97.3058 163.884 101.518C161.417 106.277 158.367 110.728 156.932 115.974C156.735 116.693 156.09 117.412 156.577 118.284C157.649 115.774 158.622 113.273 159.773 110.857C160.917 108.453 162.008 105.986 163.974 104.076C163.531 105.857 162.422 107.345 161.915 109.48C163.125 108.049 164.062 106.884 165.058 105.772C175.52 94.0925 193.755 92.3051 206.445 101.523C212.141 105.66 215.252 111.705 218.978 117.327C219.109 117.524 219.145 117.782 219.235 118.007C220.307 120.687 220.759 123.494 221.012 126.39C221.862 124.601 221.594 122.582 222.204 120.761C222.187 123.084 222.224 125.418 221.76 127.703C221.083 131.042 221.096 134.518 219.81 137.73C219.538 138.41 219.219 139.486 218.198 139.051C217.383 138.704 217.781 137.739 217.927 137.066C218.107 136.237 218.423 135.435 218.729 134.639C218.982 133.978 218.934 133.356 218.78 132.724C215.111 148.271 202.804 157.566 189.054 157.388C168.429 157.121 158.372 144.754 156.436 124.856C156.23 126.311 156.238 127.705 156.228 129.1C156.218 130.5 156.204 131.9 156.167 133.3C156.148 134.002 156.369 134.925 155.401 135.118C154.425 135.313 153.987 134.425 153.689 133.732C153.018 132.179 153.305 130.481 153.135 128.85C153.037 127.908 153.506 126.925 152.913 126.01C152.639 127.685 152.212 129.408 152.464 131.026C154.549 144.412 161.821 154.039 174.217 159.42C182.995 163.231 192.165 163.46 201.05 159.71C210.811 155.59 218.271 149.068 220.926 138.254C222.179 133.149 223.301 128.021 222.954 122.702C222.905 121.965 223.021 121.201 222.164 120.826ZM186.867 154.41C187.263 155.658 187.88 155.766 188.7 155.627C190.666 155.294 191.997 153.859 193.586 152.883C196.326 151.199 196.423 151.015 195.554 147.931C195.256 146.874 195.62 146.203 196.431 146.112C198.299 145.904 199.864 144.879 201.628 144.462C205.857 143.464 209.566 141.837 211.152 137.324C211.309 136.875 211.709 136.519 211.927 136.085C213.194 133.567 214.9 131.276 215.226 128.309C215.65 124.436 214.918 122.314 211.616 121.152C209.062 120.253 207.25 118.642 205.406 116.855C204.115 115.603 203.053 114.391 203.454 112.436C203.507 112.176 203.404 111.767 203.218 111.595C201.408 109.919 199.855 107.756 196.889 108.2C196.107 108.318 195.302 108.3 194.507 108.331C190.041 108.501 188.641 109.856 188.368 114.293C188.32 115.082 188.421 115.977 187.569 116.394C186.648 116.844 186.595 115.459 185.942 115.539C183.851 115.483 182.973 116.655 182.524 118.462C182.279 119.447 181.655 120.298 180.109 120.22C180.61 118.63 180.267 117.147 180.189 115.652C180.124 114.409 180.905 113.553 181.922 113.385C183.376 113.144 184.778 112.677 186.41 112.453C186.437 109.774 187.723 107.985 190.493 107.279C194.45 106.271 198.287 106.103 201.968 108.422C201.968 107.503 202.187 106.582 201.928 105.822C201.059 103.269 199.988 100.45 197.264 99.6758C193.321 98.557 189.227 97.7699 185.021 98.8484C183.488 99.2415 182.403 99.8399 181.529 101.157C180.057 103.375 178.008 105.092 175.624 106.181C173.028 107.367 170.511 108.652 168.062 110.107C166.696 110.92 165.745 112.068 164.954 113.383C163.13 116.412 161.532 119.449 161.041 123.11C160.547 126.802 161.235 129.883 164.411 131.761C167.096 133.35 168.584 135.514 169.179 138.5C169.584 140.535 172.88 143.577 174.696 143.425C176.141 143.304 176.979 143.727 177.424 144.973C179.307 144.728 180.669 143.54 182.313 142.86C182.522 144.299 181.105 144.654 180.888 145.715C181.221 145.876 181.534 146.074 181.875 146.182C182.62 146.418 183.979 146.278 183.595 147.437C183.19 148.656 182.022 147.807 181.211 147.571C180.825 147.459 180.462 147.141 180.181 146.832C179.75 146.356 179.38 146.356 178.765 146.56C176.651 147.262 176.234 147.029 175.227 144.869C172.073 146.185 169.884 144.227 167.519 142.146C167.072 145.785 168.838 148.234 171.002 150.044C174.828 153.245 179.486 154.825 184.452 155.443C185.339 155.554 186.13 155.571 186.867 154.41ZM159.863 119.508C158.899 122.526 158.41 125.585 159.387 128.772C159.431 125.674 159.991 122.622 159.863 119.508ZM200.087 153.016C197.572 152.115 197.565 152.118 195.569 154.682C197.147 154.367 198.504 153.736 200.087 153.016ZM215.837 134.13C214.339 136.3 214 138.95 212.786 141.249C214.383 139.123 215.303 136.714 215.837 134.13Z" fill="#D6D7D6"/>
<path id="Vector_5" d="M152.416 83.4101C157.056 78.6516 162.288 74.6327 167.472 70.5569C171.075 67.7227 175.264 65.4061 178.213 62.0094C184.438 54.8396 192.604 50.1004 199.523 43.8344C204.046 39.7392 208.842 35.9292 214.059 32.7116C215.265 31.9675 216.411 30.9961 218.29 31.0452C210.491 36.5803 203.681 42.8569 196.527 48.7421C204.3 44.3574 210.836 38.0466 219.106 34.4463C197.13 51.1218 173.989 66.2073 152.416 83.4101Z" fill="#D6D7D6"/>
<path id="Vector_6" d="M103.149 112.706C91.8303 117.489 80.0134 120.041 67.5875 120.483C68.6852 124.988 68.9134 129.418 68.8256 133.873C68.8186 134.24 68.8159 134.607 68.8089 134.974C68.7984 135.568 68.6334 136.144 67.985 136.231C67.1628 136.34 66.9803 135.626 66.8829 135.035C66.7539 134.254 66.7153 133.454 66.7057 132.661C66.6609 128.991 66.6205 125.32 66.6214 121.65C66.6214 120.445 66.13 119.993 64.8463 120.285C65.242 122.804 65.6263 125.31 66.03 127.811C66.6126 131.423 65.729 135 65.7808 138.601C65.7869 139 65.5421 139.42 65.3543 139.802C65.0648 140.39 64.6181 140.854 63.9048 140.612C63.2291 140.383 63.3291 139.754 63.3941 139.204C63.7968 135.82 64.2171 132.436 64.6103 129.051C64.8586 126.911 64.6568 124.775 64.3602 122.66C63.9837 119.981 63.932 119.988 60.6941 119.966C62.2288 125.443 64.218 130.843 62.6859 136.596C61.6119 134.172 61.5452 131.562 61.1837 129.02C60.7968 126.3 60.3255 123.602 59.8078 120.905C59.5613 119.621 58.9032 119.18 57.5431 119.102C58.6443 126.159 60.6318 133.047 59.2147 140.185C58.2889 132.812 57.9722 125.376 56.7183 117.99C64.5786 119.265 72.418 119.087 80.2485 117.955C88.0238 116.831 95.6113 114.871 103.149 112.706Z" fill="#D6D7D6"/>
<path id="Vector_7" d="M33.1535 95.4394C31.9251 94.8147 31.9382 93.9003 31.7899 93.1124C30.608 86.8156 31.5934 80.7821 33.9116 74.8706C37.9445 64.5858 44.0429 55.6654 51.6541 47.7313C53.3898 45.922 55.3307 44.3381 57.4051 42.9228C57.7877 42.6613 58.1474 42.0857 58.6476 42.5727C59.2741 43.1834 58.5782 43.5888 58.2229 43.9055C55.5668 46.2738 53.2432 48.9466 51.0732 51.7484C44.0035 60.8758 37.7357 70.4543 34.5338 81.7158C33.2878 86.1014 33.0947 90.6107 33.1535 95.4394Z" fill="#D6D7D6"/>
<path id="Vector_8" d="M43.2776 55.2075C41.0699 58.5542 38.8078 61.8535 36.7211 65.2695C31.8389 73.2641 29.1442 81.844 29.4162 91.2944C29.4943 94.0137 29.2205 96.7417 29.1503 99.4672C28.9713 106.339 29.9594 113.062 31.8038 119.669C32.0574 120.578 32.3426 121.482 32.189 122.796C31.1431 121.671 30.7736 120.524 30.3068 119.453C27.9052 113.946 26.9189 108.134 26.954 102.177C27.0023 93.9654 26.6636 85.7067 29.1696 77.705C30.9044 72.1655 33.7676 67.228 37.0897 62.5239C38.9385 59.9099 40.7935 57.2977 43.2776 55.2075Z" fill="#D6D7D6"/>
<path id="Vector_9" d="M23.9152 96.9419C23.9152 98.9908 23.859 100.858 23.9257 102.72C24.1495 109.012 25.7833 114.985 28.1121 120.795C30.3093 126.277 32.5635 131.747 33.749 137.56C34.8186 142.807 34.537 148.024 33.0154 153.169C32.7671 154.01 32.3187 154.726 31.7914 155.405C31.4772 155.81 31.1087 156.188 30.5655 155.857C30.0452 155.54 29.8241 155.059 30.1277 154.448C32.2389 150.188 32.1924 145.463 33.0672 140.935C33.1673 140.418 33.1278 140.023 32.9084 139.555C29.4775 132.222 26.9109 124.557 24.5979 116.831C22.7885 110.79 22.1576 104.522 22.957 98.1914C23.0053 97.7992 22.8482 97.3008 23.9152 96.9419Z" fill="#D6D7D6"/>
<path id="Vector_10" d="M151.101 11.6619C151.511 10.9072 152.112 11.1029 152.634 11.138C162.378 11.7908 172.146 12.3358 181.654 14.7734C187.378 16.2405 192.939 18.199 197.784 21.7466C199.114 22.7206 199.098 22.7426 199.236 24.0061C198.425 24.4633 197.729 24.1298 197.012 23.7236C190.772 20.1882 184.12 17.7024 177.147 16.0703C170.734 14.5698 164.224 13.6212 157.692 12.8228C156.054 12.6227 154.401 12.5516 152.763 12.3524C152.204 12.2849 151.506 12.4147 151.101 11.6619Z" fill="#D6D7D6"/>
<path id="Vector_11" d="M156.619 66.0513C156.515 67.0647 156.004 67.0858 155.655 67.2639C144.605 72.892 133.933 79.1817 123.321 85.5829C118.998 88.1907 114.91 91.2329 110.142 93.0739C109.235 93.424 108.363 93.803 107.285 93.7723C122.803 82.9092 138.959 73.4185 156.619 66.0513Z" fill="#D6D7D6"/>
<path id="Vector_12" d="M32.7303 101.995C33.1015 105.524 33.8289 108.961 34.5686 112.403C35.6198 117.289 36.9404 122.09 38.5313 126.827C40.417 132.442 41.5304 138.124 39.5 143.971C39.335 144.445 39.457 145.246 38.6225 145.07C37.9091 144.92 38.0048 144.241 38.0995 143.7C39.0314 138.366 37.8389 133.261 36.3034 128.234C34.3413 121.809 33.0795 115.248 32.26 108.602C31.9915 106.421 31.8967 104.167 32.7303 101.995Z" fill="#D6D7D6"/>
<path id="Vector_13" d="M72.0537 111.942C89.8093 109.213 106.455 103.298 122.578 94.5571C119.546 101.097 78.5119 115.067 72.0537 111.942Z" fill="#D6D7D6"/>
<path id="Vector_14" d="M146.01 85.8893C147.583 81.4282 176.955 53.823 182.247 51.5898C170.879 63.9903 157.816 74.276 146.01 85.8893Z" fill="#D6D7D6"/>
<path id="Vector_15" d="M112.611 105.121C112.271 106.4 111.41 106.44 110.81 106.692C99.9601 111.236 88.7908 114.69 77.1134 116.334C73.8448 116.794 70.5411 116.902 67.2401 116.741C66.4424 116.702 65.5395 116.719 64.8691 115.439C81.5148 115.172 97.0855 110.858 112.611 105.121Z" fill="#D6D7D6"/>
<path id="Vector_16" d="M135.33 80.9346C119.81 93.0367 103.219 103.046 83.519 106.84C102.372 101.362 119.272 92.0074 135.33 80.9346Z" fill="#D6D7D6"/>
<path id="Vector_17" d="M51.726 145.574C51.0556 144.559 50.9872 143.527 50.9828 142.629C50.9222 130.745 49.1006 119.059 46.9087 107.41C51.1144 112.689 54.691 141.396 51.726 145.574Z" fill="#D6D7D6"/>
<path id="Vector_18" d="M54.5833 143.498C53.5172 134.707 54.3367 126.173 52.7827 117.728C54.3174 117.655 54.327 118.445 54.471 119.049C56.1022 125.913 56.5865 132.883 56.2566 139.91C56.2005 141.095 56.2031 142.466 54.5833 143.498Z" fill="#D6D7D6"/>
<path id="Vector_19" d="M127.879 78.3776C132.338 73.613 160.599 59.9709 167.224 59.4453C153.782 65.6982 140.395 71.142 127.879 78.3776Z" fill="#D6D7D6"/>
<path id="Vector_20" d="M145.816 80.1929C138.633 89.659 129.994 97.5607 120.236 104.277C128.954 96.4428 137.115 88.0252 145.816 80.1929Z" fill="#D6D7D6"/>
<path id="Vector_21" d="M133.243 65.4078C132.084 65.8939 131.261 66.2387 130.437 66.5853C130.036 66.7547 129.611 66.96 129.294 66.4835C128.95 65.9658 129.223 65.5569 129.62 65.2086C130.169 64.7251 130.724 64.2486 131.334 63.7204C130.594 63.2817 129.904 64.597 128.998 63.4773C130.592 61.575 132.693 60.4606 135.092 59.5884C135.5 60.3044 135.212 61.0968 136.241 61.5969C137.161 62.0435 135.739 62.9149 135.432 63.6791C136.168 63.9011 137.218 63.0053 137.586 64.1828C137.895 65.1708 136.938 65.5543 136.355 66.0194C135.503 66.6994 134.585 67.3136 133.635 67.8463C133.159 68.113 132.544 68.6974 131.99 68.0375C131.387 67.3198 132.067 66.8205 132.466 66.308C132.636 66.0922 132.825 65.8913 133.243 65.4078Z" fill="#D6D7D6"/>
<path id="Vector_22" d="M43.7207 69.0502C47.2657 58.1397 54.7057 49.9722 62.9347 42.3672C56.1027 50.9489 48.6863 59.1181 43.7207 69.0502Z" fill="#D6D7D6"/>
<path id="Vector_23" d="M47.5873 136.289C47.5882 140.188 47.3627 143.167 46.5475 146.06C46.3826 146.647 46.63 147.869 45.4849 147.561C44.682 147.345 45.1892 146.454 45.205 145.811C45.3375 140.522 45.8008 135.218 44.6539 129.973C44.6276 129.853 44.5793 129.729 44.5916 129.613C44.6645 128.915 43.322 128.096 44.5188 127.595C45.5148 127.18 45.928 128.274 46.3413 129.004C47.7927 131.57 47.4741 134.423 47.5873 136.289Z" fill="#D6D7D6"/>
<path id="Vector_24" d="M40.6772 148.97C42.0926 140.843 42.9745 132.725 40.9001 124.564C44.8031 128.264 44.6917 144.191 40.6772 148.97Z" fill="#D6D7D6"/>
<path id="Vector_25" d="M39.0172 107.06C40.5492 108.041 44.4873 123.266 43.7239 124.814C41.8725 123.623 38.302 110.367 39.0172 107.06Z" fill="#D6D7D6"/>
<path id="Vector_26" d="M82.7506 47.1563C80.9158 49.1973 72.0507 55.716 70.9775 55.8494C71.5382 52.8519 80.7841 45.8989 82.7506 47.1563Z" fill="#D6D7D6"/>
<path id="Vector_27" d="M130.055 28.6763C131.07 28.7201 131.941 28.6438 132.029 29.652C132.123 30.7401 131.132 30.4102 130.564 30.5637C127.507 31.3929 124.446 32.2142 121.373 32.982C120.91 33.0979 120.193 33.5313 119.904 32.8127C119.561 31.9606 120.408 31.8334 120.933 31.6281C123.995 30.4259 127.064 29.2326 130.055 28.6763Z" fill="#D6D7D6"/>
<path id="Vector_28" d="M69.4776 122.642C70.6323 124.357 70.9061 126.337 71.3431 128.232C71.8537 130.45 71.5703 132.708 71.3668 134.946C71.3167 135.5 71.1299 136.079 70.4121 136.055C69.8014 136.035 69.6101 135.579 69.6302 135.032C69.7689 131.196 69.625 127.378 68.9063 123.595C68.8511 123.305 68.8669 122.987 69.4776 122.642Z" fill="#D6D7D6"/>
<path id="Vector_29" d="M70.8916 59.124C71.5962 56.4222 77.9122 51.1565 80.32 51.2618C79.6312 53.3976 72.5728 59.2837 70.8916 59.124Z" fill="#D6D7D6"/>
<path id="Vector_30" d="M78.1052 120.939C79.5171 121.609 79.2459 122.97 79.3845 124.001C79.6952 126.313 79.274 128.618 78.8423 130.901C78.7019 131.642 78.3957 132.277 77.5708 132.143C76.7758 132.014 76.8636 131.232 76.9057 130.645C77.1198 127.605 77.6954 124.598 77.7042 121.538C77.7042 121.35 77.9481 121.164 78.1052 120.939Z" fill="#D6D7D6"/>
<path id="Vector_31" d="M74.3395 61.7701C73.8885 61.2787 73.9991 60.7636 74.3369 60.2801C75.5882 58.4892 76.7929 56.6597 78.3259 55.0855C78.762 54.638 79.277 54.287 79.9448 54.3818C80.4599 54.4546 81.0776 54.7477 80.7503 55.304C79.2112 57.9162 77.7371 60.6241 74.6949 61.8578C74.6063 61.8929 74.4668 61.8043 74.3395 61.7701Z" fill="#D6D7D6"/>
<path id="Vector_32" d="M133.247 56.6307C134.085 56.564 134.535 56.6825 134.783 57.202C135.023 57.703 134.684 58.0005 134.381 58.3023C132.466 60.2117 130.088 61.4796 127.883 62.9871C127.567 63.2021 127.224 63.339 126.88 63.0512C126.599 62.8169 126.591 62.4826 126.787 62.2308C128.56 59.9537 130.677 58.0628 133.199 56.6404C133.297 56.586 133.44 56.6123 133.247 56.6307Z" fill="#D6D7D6"/>
<path id="Vector_33" d="M123.697 29.3394C123.763 28.8085 123.749 28.7129 123.782 28.6927C126.631 26.8869 129.835 26.0779 133.092 25.4513C133.539 25.3653 134.068 25.6321 134.206 26.2139C134.32 26.6938 134.141 27.1519 133.697 27.2695C130.453 28.1285 127.196 28.9331 123.697 29.3394Z" fill="#D6D7D6"/>
<path id="Vector_34" d="M119.314 36.2681C120.786 33.8946 128.717 31.9326 130.593 33.2795C127.062 35.0441 123.37 35.3345 119.314 36.2681Z" fill="#D6D7D6"/>
<path id="Vector_35" d="M58.3379 74.9523C57.5456 77.2978 56.1828 79.4213 54.4077 81.2894C54.1848 81.5237 53.8681 81.5676 53.5697 81.3973C53.1845 81.178 53.1652 80.8287 53.2775 80.4505C53.9786 78.0744 55.3844 76.1237 57.041 74.3398C57.2481 74.117 57.6131 73.8458 58.022 74.0696C58.33 74.2372 58.409 74.5109 58.3379 74.9523Z" fill="#D6D7D6"/>
<path id="Vector_36" d="M73.543 122.908C74.438 123.976 74.4476 125.376 74.5872 126.626C74.8372 128.866 74.796 131.138 74.8557 133.398C74.8723 134.024 74.8048 134.734 73.9992 134.768C73.1744 134.802 73.3157 134.045 73.2903 133.54C73.1218 130.251 73.6105 126.943 73.0033 123.664C72.9428 123.342 73.1069 123.074 73.543 122.908Z" fill="#D6D7D6"/>
<path id="Vector_37" d="M91.6995 84.069C92.0259 83.7987 92.3313 83.4942 92.6849 83.2678C93.1403 82.9765 93.6422 82.6203 94.1801 83.0765C94.6864 83.5056 94.5574 84.0119 94.3205 84.5665C93.816 85.7484 93.2491 86.8786 92.2927 87.7701C91.8495 88.1834 91.4134 88.7424 90.7308 88.3905C89.9717 87.9992 90.1937 87.2384 90.2771 86.5934C90.3227 86.2425 90.5193 85.9117 90.6474 85.5712C90.9984 85.0693 91.3494 84.5691 91.6995 84.069Z" fill="#D6D7D6"/>
<path id="Vector_38" d="M72.6188 76.3947C72.6135 77.3889 70.569 80.1231 69.6091 80.3609C68.6509 80.5987 68.0867 80.0573 68.2288 79.2009C68.5087 77.51 69.4739 76.1727 70.9876 75.3391C71.8054 74.8899 72.6241 75.4778 72.6188 76.3947Z" fill="#D6D7D6"/>
<path id="Vector_39" d="M82.6585 121.16C83.3982 121.48 83.4113 122.224 83.3973 122.744C83.3403 124.817 83.0419 126.87 82.2662 128.817C82.0855 129.271 81.831 129.796 81.2203 129.629C80.5947 129.458 80.7 128.942 80.7982 128.421C81.1501 126.565 81.4256 124.695 81.8091 122.846C81.9337 122.244 81.9197 121.487 82.6585 121.16Z" fill="#D6D7D6"/>
<path id="Vector_40" d="M100.105 41.8294C99.4787 41.7557 98.6846 41.7715 98.6223 40.7352C98.5494 39.5252 100.336 38.245 102.204 38.2985C102.946 38.3196 103.831 38.4178 103.827 39.5708C103.824 40.7967 102.298 41.768 100.105 41.8294Z" fill="#D6D7D6"/>
<path id="Vector_41" d="M86.656 85.0292C85.8128 84.8423 85.7207 84.1798 85.8584 83.4902C86.198 81.7879 87.4756 80.6787 88.6128 79.5354C89.098 79.0475 89.7983 79.3783 90.0984 80.0241C90.5362 80.9674 87.7546 85.0126 86.656 85.0292Z" fill="#D6D7D6"/>
<path id="Vector_42" d="M131.741 36.038C129.547 37.12 127.126 37.5139 124.879 38.3844C124.564 38.5064 124.238 38.4248 124.131 38.0799C124.069 37.8781 124.1 37.5841 124.21 37.4043C124.922 36.2258 129.799 34.6095 131.121 35.0991C131.414 35.2088 131.651 35.4027 131.741 36.038Z" fill="#D6D7D6"/>
<path id="Vector_43" d="M56.4826 71.3228C55.2629 74.2833 53.715 76.4876 51.3985 78.3855C50.9536 76.2682 54.0081 71.9098 56.4826 71.3228Z" fill="#D6D7D6"/>
<path id="Vector_44" d="M91.699 84.0694C91.348 84.5696 90.9979 85.0698 90.6469 85.5699C90.3477 85.7603 90.0494 85.9542 89.7475 86.142C89.1394 86.5211 88.462 87.2046 87.8258 86.4167C87.2818 85.7419 87.7943 85.0154 88.2672 84.4371C88.885 83.6825 89.5159 82.9322 90.2038 82.2425C90.6057 81.8398 91.026 81.1597 91.7376 81.6011C92.4703 82.0556 92.2378 82.7418 91.9544 83.3841C91.857 83.607 91.7841 83.8413 91.699 84.0694Z" fill="#D6D7D6"/>
<path id="Vector_45" d="M79.2768 64.1191C78.8091 64.0121 78.4695 63.7418 78.7819 63.239C79.5813 61.957 80.1078 60.4943 81.2063 59.4106C81.7372 58.8868 82.4313 58.3892 83.1192 59.0236C83.8896 59.7344 83.0552 60.1345 82.6375 60.6171C81.8846 61.4867 81.1783 62.3958 80.4631 63.2969C80.1542 63.6865 79.8147 64.0164 79.2768 64.1191Z" fill="#D6D7D6"/>
<path id="Vector_46" d="M107.427 32.7775C107.442 33.2882 107.098 33.5321 106.7 33.7076C106.099 33.9726 105.502 34.2657 104.874 34.4456C104.183 34.6439 103.295 35.3669 102.813 34.3429C102.387 33.4365 103.411 32.9969 103.933 32.495C104.69 31.7675 105.719 31.8658 106.683 31.929C107.163 31.9615 107.435 32.2721 107.427 32.7775Z" fill="#D6D7D6"/>
<path id="Vector_47" d="M83.4951 128.63C83.9198 125.898 83.6917 123.391 84.8842 121.053C86.0214 122.229 85.1834 127.627 83.4951 128.63Z" fill="#D6D7D6"/>
<path id="Vector_48" d="M55.1219 68.8359C53.5653 71.2534 52.1771 73.2303 50.4388 75.259C50.2809 72.7547 52.586 69.444 55.1219 68.8359Z" fill="#D6D7D6"/>
<path id="Vector_49" d="M86.9306 127.231C87.4009 124.305 86.4252 121.889 86.6595 119.303C88.3723 120.873 88.6671 125.308 86.9306 127.231Z" fill="#D6D7D6"/>
<path id="Vector_50" d="M93.71 89.3209C94.003 87.4562 94.8208 86.2032 95.7299 85.002C95.8247 84.8765 96.2011 84.8642 96.3959 84.9361C96.8083 85.0888 96.8662 85.5135 96.7548 85.8505C96.2836 87.2816 95.5974 88.554 93.71 89.3209Z" fill="#D6D7D6"/>
</g>
</g>
</svg>
