<svg width="218" height="282" viewBox="0 0 218 282" fill="none" xmlns="http://www.w3.org/2000/svg">
<g id="Group" opacity="0.4">
<g id="Group_2">
<g id="Group_3">
<path id="Vector" d="M204.278 79.5273C169.218 104.22 125.973 103.918 87.2649 118.042C66.0954 125.764 46.8421 138.231 30.608 155.374C22.5474 163.886 15.2834 173.399 9.0078 183.781C2.82924 194.003 -1.26693 205.376 -6.71175 216.06C-7.64615 217.891 -10.2864 216.403 -9.7752 214.32C-4.36683 192.269 10.2922 171.682 24.0409 156.2C39.0695 139.277 57.1269 125.959 77.001 117.516C118.159 100.033 165.104 103.431 204.132 79.2277C204.295 79.1271 204.431 79.4208 204.278 79.5273Z" fill="#D6D7D6"/>
</g>
</g>
<g id="Group_4">
<g id="Group_5">
<path id="Vector_2" d="M41.605 24.5123C54.5589 38.8231 57.4508 59.7646 55.1126 78.7169C53.5692 91.221 49.8772 103.042 46.1272 114.7C41.9971 127.539 38.6235 140.467 35.0732 153.537C34.652 155.087 32.3263 154.746 32.455 152.956C33.991 131.607 44.2486 112.486 49.4308 92.412C55.2476 69.8815 55.4423 45.0691 40.6908 25.4857C40.128 24.7396 40.9915 23.8352 41.605 24.5123Z" fill="#D6D7D6"/>
</g>
</g>
<g id="Group_6">
<g id="Group_7">
<path id="Vector_3" d="M177.548 102.069C183.305 102.64 183.879 109.832 179.839 113.345C175.678 116.962 168.524 114.84 163.729 114.357C155.195 113.501 146.661 112.643 138.127 111.787C136.603 111.635 136.597 108.876 138.118 109.055C144.519 109.796 150.92 110.54 157.321 111.281C160.52 111.653 163.722 112.036 166.921 112.394C167.988 112.519 169.055 112.642 170.122 112.766C174.747 114.051 177.188 110.806 177.438 103.031C176.962 102.894 177.074 102.022 177.548 102.069Z" fill="#D6D7D6"/>
</g>
</g>
<g id="Group_8">
<g id="Group_9">
<path id="Vector_4" d="M177.06 100.13C178.929 99.966 180.797 99.7371 182.674 99.6474C183.662 99.6011 184.656 99.6678 185.645 99.6279C186.279 99.654 186.905 99.5958 187.52 99.454C188.478 97.9334 188.488 97.195 187.556 97.238C187.032 97.1798 186.743 96.5391 186.979 96.0306C188.247 93.3064 191.562 97.1363 190.18 99.7261C189.297 101.38 187.601 101.611 186.007 101.638C183.058 101.687 180.113 101.31 177.161 101.001C176.752 100.961 176.618 100.168 177.06 100.13Z" fill="#D6D7D6"/>
</g>
</g>
<g id="Group_10">
<g id="Group_11">
<path id="Vector_5" d="M187.158 94.8098C189.29 93.7141 191.968 93.853 194.238 92.9552C195.511 92.4504 196.753 91.8853 197.938 91.1645C198.591 90.7667 199.205 90.3369 199.807 89.8474C200.188 89.5937 200.533 89.2923 200.846 88.9402C202.148 87.8244 202.037 86.041 200.513 83.5946C199.401 83.4911 199.391 81.4836 200.503 81.5871C205.315 82.0327 204.218 88.4228 201.699 90.8318C199.862 92.5903 197.531 93.8993 195.22 94.6733C192.977 95.4254 189.504 96.3362 187.191 95.1163C187.085 95.0621 187.036 94.8717 187.158 94.8098Z" fill="#D6D7D6"/>
</g>
</g>
<g id="Group_12">
<g id="Group_13">
<path id="Vector_6" d="M200.024 81.9955C202.025 79.8219 204.665 78.5819 206.693 76.3278C209.133 73.6146 210.938 70.457 212.157 66.7502C212.349 67.1531 212.54 67.5561 212.732 67.9591C207.586 66.5462 203.37 67.5742 198.503 68.8725C197.754 69.0724 197.357 67.8113 197.991 67.4013C202.353 64.5732 208.221 64.8075 213.155 66.1623C213.564 66.2744 213.875 66.9353 213.731 67.3711C211.718 73.494 206.58 82.2237 200.157 82.39C199.987 82.3932 199.914 82.117 200.024 81.9955Z" fill="#D6D7D6"/>
</g>
</g>
<g id="Group_14">
<g id="Group_15">
<path id="Vector_7" d="M198.237 68.9742C198.464 68.5524 198.86 68.0214 199.019 67.5607C201.588 60.1948 197.116 61.2314 194.545 61.4335C191.887 61.6419 189.278 62.1105 186.73 62.8903C181.542 64.4808 177.277 67.6175 172.514 70.1982C171.749 70.6124 171.01 69.427 171.604 68.74C177.566 61.8374 189.008 58.1597 197.66 59.242C203.64 59.9903 203.237 67.1813 198.292 69.06C198.25 69.0749 198.217 69.0122 198.237 68.9742Z" fill="#D6D7D6"/>
</g>
</g>
<g id="Group_16">
<g id="Group_17">
<path id="Vector_8" d="M171.243 70.9518C171.656 70.4182 172.066 69.8839 172.478 69.3522C171.209 68.2097 169.941 67.0672 168.673 65.9266C167.936 65.8938 166.27 67.5509 165.626 67.9958C163.496 69.4645 161.373 70.9423 159.256 72.433C155.529 75.0547 151.77 78.4764 147.466 79.754C146.737 79.9699 146.333 78.8514 146.776 78.3046C150.113 74.1753 155.305 71.8305 159.598 69.1934C162.637 67.3271 166.528 63.6506 170.156 63.4291C175.077 63.1267 175.185 69.4292 171.417 71.232C171.273 71.2952 171.126 71.0822 171.243 70.9518Z" fill="#D6D7D6"/>
</g>
</g>
<g id="Group_18">
<g id="Group_19">
<path id="Vector_9" d="M146.304 78.6894C151.298 70.7216 156.102 62.5192 160.376 53.9758C160.609 54.4634 160.843 54.951 161.076 55.4386C159.58 55.4978 158.085 55.5655 156.591 55.6443C155.477 55.7034 155.444 53.6042 156.582 53.6037C158.078 53.603 159.572 53.5885 161.067 53.5654C161.695 53.5562 162.059 54.4702 161.766 55.0282C157.256 63.6111 152.327 71.4967 146.454 78.8377C146.385 78.929 146.242 78.7919 146.304 78.6894Z" fill="#D6D7D6"/>
</g>
</g>
<g id="Group_20">
<g id="Group_21">
<path id="Vector_10" d="M155.765 54.0605C156.482 52.4477 157.096 50.7821 157.548 49.0256C157.994 47.3 159.258 43.8629 156.473 43.8714C153.607 43.8796 151.679 47.4128 149.219 48.4095C148.824 48.5688 148.309 48.206 148.447 47.6567C149.048 45.2626 151.193 43.8951 153.027 42.8735C154.573 42.0131 156.942 40.7565 158.721 41.8903C162.581 44.3485 158.041 52.3287 156.672 54.7543C156.31 55.399 155.463 54.7388 155.765 54.0605Z" fill="#D6D7D6"/>
</g>
</g>
<g id="Group_22">
<g id="Group_23">
<path id="Vector_11" d="M148.356 47.754C147.145 44.4238 145.78 43.5246 144.26 45.0571C142.994 45.9748 141.768 46.9592 140.583 48.0082C138.938 49.5172 137.441 51.231 136.04 53.0374C132.906 57.0825 130.338 61.6832 127.775 66.2411C126.953 67.7026 124.855 66.1031 125.699 64.6548C130.346 56.6788 136.132 45.522 144.594 42.4621C146.416 41.8033 149.046 41.6914 150.142 44.1318C151.071 46.1965 150.105 47.5824 148.391 47.8589C148.342 47.8674 148.307 47.7813 148.356 47.754Z" fill="#D6D7D6"/>
</g>
</g>
<g id="Group_24">
<g id="Group_25">
<path id="Vector_12" d="M125.53 67.5924C124.179 59.4071 119.764 73.338 118.717 76.2845C116.724 81.8837 114.209 87.1377 111.124 91.9656C105.387 100.944 97.656 109.344 88.5069 113.433C87.4726 113.896 86.723 112.304 87.6351 111.604C98.5904 103.209 108.02 94.8238 114.254 80.9284C117.438 73.8288 118.153 63.8264 125.43 60.9586C125.93 60.761 126.477 61.4001 126.473 61.9609C126.532 63.8414 126.442 65.7021 126.199 67.5397C126.162 67.942 125.609 68.0743 125.53 67.5924Z" fill="#D6D7D6"/>
</g>
</g>
<g id="Group_26">
<g id="Group_27">
<path id="Vector_13" d="M122.738 133.378C127.891 135.566 125.506 142.116 120.759 142.334C115.386 142.579 109.87 134.769 105.781 131.464C99.043 126.019 91.8478 121.951 84.6054 117.599C83.7876 117.108 84.3731 115.596 85.2259 115.966C90.9819 118.464 96.4542 121.908 101.699 125.686C104.288 127.55 106.829 129.52 109.303 131.59C110.952 132.973 112.568 134.403 114.157 135.88C116.768 139.524 119.474 138.979 122.277 134.245C121.973 133.849 122.274 133.182 122.738 133.378Z" fill="#D6D7D6"/>
</g>
</g>
<g id="Group_28">
<g id="Group_29">
<path id="Vector_14" d="M122.966 132.319C127.289 134.042 131.296 136.929 135.266 139.579C137.651 141.171 140.082 143.035 142.643 144.185C145.957 145.675 148.682 146.667 147.459 141.588C147.329 141.045 148 140.569 148.328 141.076C149.482 142.861 149.841 143.998 150.134 146.271C150.203 146.805 150.013 147.499 149.462 147.561C145.188 148.037 141.603 146.219 137.816 143.761C132.719 140.45 127.214 137.137 122.782 132.668C122.634 132.518 122.796 132.253 122.966 132.319Z" fill="#D6D7D6"/>
</g>
</g>
<g id="Group_30">
<g id="Group_31">
<path id="Vector_15" d="M147.494 140.453C150.524 141.859 153.638 143.042 156.773 144.022C158.009 144.409 160.188 145.285 161.404 145.196C163.087 145.608 163.839 144.348 163.661 141.414C163.206 140.919 162.772 140.399 162.363 139.857C162.005 139.405 162.463 138.888 162.884 139.128C165.665 140.718 167.945 145.441 164.157 147.036C162.172 147.872 159.651 146.999 157.638 146.45C153.916 145.434 150.435 143.801 146.984 141.808C146.303 141.414 146.791 140.127 147.494 140.453Z" fill="#D6D7D6"/>
</g>
</g>
<g id="Group_32">
<g id="Group_33">
<path id="Vector_16" d="M162.64 138.164C165.985 139.076 169.344 139.611 172.736 139.733C173.707 139.769 178.517 140.268 179.051 139.381C178.991 137.487 178.93 135.59 178.869 133.695C178.019 132.963 177.15 132.265 176.264 131.599C169.958 126.757 163.319 124.284 156.418 121.207C155.843 120.95 155.895 119.811 156.565 119.929C162.095 120.913 167.558 123.801 172.513 126.991C175.019 128.603 183.079 132.877 183.333 137.033C183.841 145.342 165.944 140.371 162.415 139.096C161.878 138.903 162.109 138.019 162.64 138.164Z" fill="#D6D7D6"/>
</g>
</g>
<g id="Group_34">
<g id="Group_35">
<path id="Vector_17" d="M156.664 119.804C158.04 118.219 157.698 117.526 155.635 117.724C155.028 117.584 154.418 117.446 153.811 117.307C151.683 116.822 149.554 116.336 147.426 115.848C143.474 114.946 139.521 114.044 135.569 113.142C134.447 112.886 134.909 110.91 136.043 111.205C140.87 112.465 145.697 113.724 150.526 114.986C152.894 115.604 158.623 115.721 160.165 118.447C162.053 121.788 158.157 121.702 156.425 120.252C156.174 120.042 156.396 119.621 156.664 119.804Z" fill="#D6D7D6"/>
</g>
</g>
<g id="Group_36">
<g id="Group_37">
<path id="Vector_18" d="M140.024 112.173C137.818 111.488 135.794 111.56 133.59 111.739C133.589 111.207 133.587 110.677 133.586 110.147C135.142 110.21 136.61 110.606 138.058 111.368C138.586 111.646 138.678 112.551 138.056 112.708C136.424 113.12 134.778 112.687 133.417 111.409C132.92 110.942 133.205 110.086 133.847 110.27C135.25 110.676 136.656 111.081 138.059 111.485C138.695 111.67 138.485 112.674 137.919 112.695C136.242 112.756 134.65 112.403 133.069 111.622C132.594 111.386 132.553 110.612 133.07 110.467C135.455 109.793 137.872 109.92 140.257 110.956C141.159 111.348 140.785 112.79 139.875 112.542C137.676 111.944 135.429 111.711 133.217 111.923C133.217 111.295 133.218 110.668 133.218 110.039C134.314 110.327 135.407 110.613 136.502 110.901C137.445 111.149 138.189 111.171 138.859 112.031C139.097 112.337 139.07 112.878 138.736 113.045C137.857 113.482 137.285 113.178 136.311 112.9C135.131 112.563 133.952 112.226 132.772 111.891C131.75 111.6 132.127 110.053 132.99 109.989C135.45 109.809 137.843 110.123 140.253 110.955C140.126 111.483 139.999 112.013 139.872 112.541C137.752 111.454 135.538 111.1 133.337 111.64C133.337 111.255 133.339 110.87 133.339 110.485C134.833 111.21 136.334 111.526 137.912 111.454C137.866 111.856 137.818 112.26 137.772 112.663C136.366 112.27 134.958 111.876 133.552 111.483C133.694 111.103 133.838 110.724 133.982 110.344C135.131 111.407 136.373 111.756 137.741 111.341C137.741 111.788 137.741 112.235 137.739 112.681C136.377 112.035 135.03 111.727 133.588 111.734C132.815 111.739 132.63 110.256 133.405 110.156C135.68 109.867 138.014 110.552 140.146 111.653C140.428 111.801 140.326 112.266 140.024 112.173Z" fill="#D6D7D6"/>
</g>
</g>
<g id="Group_38">
<g id="Group_39">
<path id="Vector_19" d="M141.795 83.8167C143.046 82.6309 144.433 81.6261 145.599 80.3281C146.796 78.9935 147.605 77.3599 148.887 76.1309C149.258 75.775 149.776 76.2016 149.691 76.7402C149.106 80.5134 145.167 83.7852 141.982 84.2069C141.807 84.2316 141.639 83.9657 141.795 83.8167Z" fill="#D6D7D6"/>
</g>
</g>
<g id="Group_40">
<g id="Group_41">
<path id="Vector_20" d="M157.21 44.9711C143.279 66.1129 128.875 89.1427 111.782 106.895C111.321 107.374 110.477 106.616 110.868 105.997C124.534 84.3257 141.639 64.8412 156.83 44.5958C157.004 44.3666 157.374 44.7248 157.21 44.9711Z" fill="#D6D7D6"/>
</g>
</g>
<g id="Group_42">
<g id="Group_43">
<path id="Vector_21" d="M179.73 140.069C164.695 133.697 149.714 127.612 134.132 123.547C125.646 121.332 117.096 119.569 108.504 118.264C101.44 117.19 94.1151 117.285 87.1892 115.204C86.6179 115.033 86.596 113.94 87.1955 113.864C101.064 112.085 117.594 117.397 131.3 121.175C147.805 125.725 164.263 131.586 179.782 139.867C179.887 139.922 179.848 140.119 179.73 140.069Z" fill="#D6D7D6"/>
</g>
</g>
<g id="Group_44">
<g id="Group_45">
<path id="Vector_22" d="M99.3591 146.563C105.989 141.458 88.9199 137.074 86.1478 136.689C81.5135 136.045 76.7735 136.007 72.1637 136.298C61.8492 136.947 52.5884 140.361 42.9033 143.687C41.9279 144.022 41.3637 142.261 42.2241 141.747C52.0003 135.917 63.7507 133.858 74.9459 133.843C84.9818 133.831 96.3543 134.734 103.967 143.805C104.269 144.163 104.187 144.768 103.825 144.978C102.461 145.766 101.097 146.553 99.7336 147.342C99.3002 147.594 98.9752 146.858 99.3591 146.563Z" fill="#D6D7D6"/>
</g>
</g>
<g id="Group_46">
<g id="Group_47">
<path id="Vector_23" d="M41.9492 119.32C52.2216 109.084 70.8463 116.762 78.1356 101.919C78.3961 102.466 78.6567 103.012 78.9173 103.559C76.9136 103.183 76.402 103.066 74.4194 102.539C73.5658 102.311 73.7651 100.718 74.6149 100.814C76.0513 100.92 77.4834 101.137 78.9078 101.464C79.5875 101.594 80.0463 102.385 79.6896 103.105C72.2047 118.253 53.7327 111.631 42.4633 120.149C42.0664 120.448 41.5952 119.672 41.9492 119.32Z" fill="#D6D7D6"/>
</g>
</g>
<g id="Group_48">
<g id="Group_49">
<path id="Vector_24" d="M74.4953 100.48C77.2994 95.0821 79.3871 89.2755 79.1295 82.6374C79.0895 81.6237 79.1865 79.2104 78.651 78.415C76.6173 75.3905 74.588 78.4899 73.5145 79.7324C71.5858 81.9648 69.8018 84.3582 67.8736 86.5887C67.2494 87.3118 66.0322 86.1656 66.5879 85.322C68.4884 82.4359 76.2081 69.4164 79.9343 76.593C81.5619 79.7261 81.1254 84.7021 80.6371 87.9491C79.8712 93.0405 78.0386 97.4215 74.7953 100.78C74.6404 100.939 74.3833 100.693 74.4953 100.48Z" fill="#D6D7D6"/>
</g>
</g>
<g id="Group_50">
<g id="Group_51">
<path id="Vector_25" d="M66.3588 86.556C66.783 85.7539 68.3035 82.7803 67.7764 81.734C66.8788 79.9558 64.6829 81.6209 63.9265 82.1585C62.0638 83.4851 60.3628 85.9629 58.8389 87.7306C55.8029 91.2558 53.2038 95.8938 49.7608 98.8257C49.2364 99.2718 48.5881 98.6198 48.855 97.9322C50.5384 93.6078 54.1121 89.9816 56.9353 86.6638C59.3051 83.8773 62.2847 79.0787 65.6294 77.8226C71.3181 75.684 69.1872 84.9716 67.5226 87.4446C67.0169 88.1976 65.9067 87.4129 66.3588 86.556Z" fill="#D6D7D6"/>
</g>
</g>
<g id="Group_52">
<g id="Group_53">
<path id="Vector_26" d="M53.7682 79.0171C56.9443 74.5945 60.3863 70.2656 63.1363 65.4593C64.6609 62.795 66.0173 59.9541 66.9181 56.8924C67.3023 55.587 69.4 45.2262 65.1568 47.6381C64.3251 48.1102 63.5894 46.578 64.4229 46.1066C68.4058 43.855 69.7574 48.8325 69.3078 52.5933C68.0133 63.4507 60.4178 72.3233 53.8349 79.1031C53.7912 79.1509 53.731 79.0695 53.7682 79.0171Z" fill="#D6D7D6"/>
</g>
</g>
<g id="Group_54">
<g id="Group_55">
<path id="Vector_27" d="M64.4055 46.4041C64.4598 41.8301 63.9734 37.0947 62.6667 32.6557C61.9801 30.3207 61.0759 28.0889 59.9477 25.9724C60.1702 26.3903 54.0112 16.2482 53.4384 20.5209C53.2856 21.6523 51.827 21.6174 51.3902 20.6697C50.6819 19.1385 45.3638 9.51179 43.1808 14.2408C42.8149 15.0313 41.8345 14.3523 41.9623 13.5503C43.2342 5.62797 51.7665 16.8769 53.3286 19.5274C52.6335 19.6908 51.9368 19.8536 51.2418 20.0171C51.5036 12.2374 58.5534 19.2613 60.4119 22.2664C64.9429 29.5941 66.7621 38.1862 65.4371 46.6425C65.3313 47.3129 64.3978 47.0794 64.4055 46.4041Z" fill="#D6D7D6"/>
</g>
</g>
<g id="Group_56">
<g id="Group_57">
<path id="Vector_28" d="M51.3596 84.2194C52.6792 77.6836 47.4233 71.0483 43.9623 66.235C41.277 62.4997 36.6106 58.7594 34.7127 54.5075C33.1394 50.9838 35.1975 46.5502 38.5995 49.2396C39.4851 49.9394 38.9145 51.7337 37.8644 51.2137C37.3709 53.7673 37.9685 55.7384 39.6595 57.1255C40.0625 57.6083 40.4677 58.0899 40.8707 58.5727C42.0693 60.034 43.2363 61.5355 44.3623 63.0694C46.2981 65.7094 48.1424 68.4548 49.834 71.3065C52.4357 75.6916 53.9389 79.8473 52.1485 84.6643C51.9538 85.1904 51.2556 84.7369 51.3596 84.2194Z" fill="#D6D7D6"/>
</g>
</g>
<g id="Group_58">
<g id="Group_59">
<path id="Vector_29" d="M38.7023 49.87C34.7675 49.1267 31.6042 41.6657 30.3403 37.8567C29.7701 36.1366 28.6608 33.2438 30.2174 31.9359C31.6875 30.6972 33.3931 32.2334 34.1562 33.8333C34.5232 34.6012 33.7527 35.5227 33.1026 34.9596C32.733 34.3045 32.3386 34.2064 31.9234 34.6649C31.3118 34.7512 31.2118 35.1269 31.6214 35.7851C31.6454 36.511 32.1146 37.456 32.3505 38.1218C32.9132 39.702 33.6018 41.2263 34.407 42.6721C35.6758 44.9533 38.0907 47.1306 38.8404 49.6693C38.869 49.7669 38.7927 49.8865 38.7023 49.87Z" fill="#D6D7D6"/>
</g>
</g>
<g id="Group_60">
<g id="Group_61">
<path id="Vector_30" d="M33.7869 33.6717C32.2818 29.7284 31.172 25.7383 30.6095 21.5354C30.5241 20.8972 30.9181 20.4032 31.4862 20.5864C34.7522 21.6399 38.7274 25.1294 39.0254 29.3653C39.0948 30.3596 37.9041 30.5048 37.5059 29.7205C36.7142 28.1644 36.2974 26.5849 35.2082 25.2005C34.0665 23.7491 32.6859 22.7684 31.114 22.1592C31.4138 21.9146 31.7142 21.6682 32.0157 21.4243C32.3786 25.5107 32.982 29.6033 33.9645 33.6003C33.9915 33.7205 33.8322 33.7927 33.7869 33.6717Z" fill="#D6D7D6"/>
</g>
</g>
<g id="Group_62">
<g id="Group_63">
<path id="Vector_31" d="M38.5113 29.2006C38.7085 29.3142 38.3801 24.6552 38.138 23.8783C37.8873 23.0747 37.5184 22.1863 37.2426 21.3707C36.4659 19.0715 35.844 16.7266 35.2874 14.3582C34.7782 12.1917 32.8338 7.15446 34.2946 5.17271C37.3591 1.01595 42.1967 13.7512 43.0817 15.4344C42.5474 15.4741 42.0119 15.5112 41.4776 15.5509C41.8385 14.2073 42.0986 13.1395 42.7586 11.9921C43.0568 11.4741 43.8526 11.7266 43.8406 12.4166C43.8152 13.8343 43.5251 14.8711 43.1681 16.2141C42.9433 17.0614 41.9747 17.1053 41.5623 16.3299C40.5669 14.4499 39.5715 12.57 38.5762 10.69C38.4084 10.3728 37.3201 7.88317 37.0837 7.87143C35.7854 7.801 36.2861 10.0899 36.339 10.7819C36.6683 15.0427 38.5697 20.0013 39.7895 24.0746C40.2352 25.562 41.7446 28.6877 40.3352 29.9311C39.5562 30.6184 38.9255 30.3944 38.3327 29.4501C38.2312 29.2867 38.3549 29.1115 38.5113 29.2006Z" fill="#D6D7D6"/>
</g>
</g>
<g id="Group_64">
<g id="Group_65">
<path id="Vector_32" d="M78.7127 78.308C74.7829 96.4456 55.6776 102.742 44.5344 113.435C43.9125 114.03 42.8102 113.087 43.3249 112.243C52.408 97.3416 71.7364 96.7868 77.4061 77.7948C77.6836 76.8658 78.9244 77.334 78.7127 78.308Z" fill="#D6D7D6"/>
</g>
</g>
<g id="Group_66">
<g id="Group_67">
<path id="Vector_33" d="M147.434 107.814C142.238 106.577 137.061 105.193 131.968 103.385C131.374 103.174 131.634 102.219 132.218 102.368C137.4 103.686 142.497 105.422 147.559 107.307C147.856 107.417 147.725 107.883 147.434 107.814Z" fill="#D6D7D6"/>
</g>
</g>
<g id="Group_68">
<g id="Group_69">
<path id="Vector_34" d="M156.453 107.534C151.011 105.147 145.224 104.585 139.632 103.035C139.259 102.931 139.361 102.294 139.719 102.305C145.555 102.483 151.012 105.127 156.499 107.348C156.604 107.391 156.557 107.58 156.453 107.534Z" fill="#D6D7D6"/>
</g>
</g>
<g id="Group_70">
<g id="Group_71">
<path id="Vector_35" d="M151.832 103.58C149.221 102.929 146.317 102.577 143.812 101.466C143.667 101.402 143.683 101.138 143.849 101.153C146.506 101.4 149.298 102.549 151.907 103.275C152.086 103.325 152.008 103.623 151.832 103.58Z" fill="#D6D7D6"/>
</g>
</g>
<g id="Group_72">
<g id="Group_73">
<path id="Vector_36" d="M158.576 103.134C154.047 101.888 149.308 100.972 144.882 99.2526C144.493 99.1007 144.548 98.3278 144.982 98.4175C149.585 99.3664 154.177 101.196 158.703 102.627C158.997 102.72 158.87 103.216 158.576 103.134Z" fill="#D6D7D6"/>
</g>
</g>
<g id="Group_74">
<g id="Group_75">
<path id="Vector_37" d="M171.323 105.021C165.166 101.281 158.861 99.22 152.158 97.5514C151.64 97.4226 151.759 96.4344 152.283 96.5087C159.102 97.4763 165.578 100.564 171.563 104.577C171.832 104.755 171.591 105.185 171.323 105.021Z" fill="#D6D7D6"/>
</g>
</g>
<g id="Group_76">
<g id="Group_77">
<path id="Vector_38" d="M169.168 98.7632C165.815 97.8322 162.227 97.1977 158.976 95.8212C158.548 95.6396 158.593 94.7912 159.089 94.882C162.522 95.5034 165.981 96.9716 169.343 98.0521C169.758 98.184 169.579 98.8772 169.168 98.7632Z" fill="#D6D7D6"/>
</g>
</g>
<g id="Group_78">
<g id="Group_79">
<path id="Vector_39" d="M173.706 96.272C170.727 95.5914 167.454 95.2389 164.575 94.0639C164.037 93.8445 164.108 92.8346 164.711 92.9116C167.755 93.3048 170.9 94.6523 173.88 95.5574C174.303 95.6849 174.115 96.366 173.706 96.272Z" fill="#D6D7D6"/>
</g>
</g>
<g id="Group_80">
<g id="Group_81">
<path id="Vector_40" d="M184.022 93.0732C180.319 92.5505 176.354 92.4272 172.733 91.2232C172.413 91.117 172.498 90.5896 172.807 90.5936C176.497 90.6238 180.356 91.8193 184.021 92.5359C184.316 92.5921 184.33 93.1177 184.022 93.0732Z" fill="#D6D7D6"/>
</g>
</g>
<g id="Group_82">
<g id="Group_83">
<path id="Vector_41" d="M189.277 90.9531C185.845 90.54 182.395 90.2307 178.974 89.6175C178.679 89.5648 178.665 89.0618 178.973 89.0764C182.406 89.2417 185.846 89.7192 189.276 90.0885C189.759 90.1386 189.761 91.0094 189.277 90.9531Z" fill="#D6D7D6"/>
</g>
</g>
<g id="Group_84">
<g id="Group_85">
<path id="Vector_42" d="M196.205 88.8539C191.876 88.518 187.495 88.4045 183.186 87.6064C182.529 87.4853 182.508 86.4222 183.183 86.4148C187.505 86.37 191.875 87.0234 196.202 87.4465C196.989 87.5229 196.995 88.9146 196.205 88.8539Z" fill="#D6D7D6"/>
</g>
</g>
<g id="Group_86">
<g id="Group_87">
<path id="Vector_43" d="M125.959 101.857C134.615 95.8679 143.379 89.6496 152.336 84.2619C152.793 83.9879 153.337 84.8052 152.911 85.186C144.993 92.2562 135.563 98.057 126.293 102.558C125.904 102.747 125.598 102.105 125.959 101.857Z" fill="#D6D7D6"/>
</g>
</g>
<g id="Group_88">
<g id="Group_89">
<path id="Vector_44" d="M137.425 99.3896C142.592 96.8692 147.156 93.4671 151.89 90.1005C152.337 89.7809 152.87 90.6374 152.465 91.0239C148.202 95.0902 142.987 97.8995 137.806 100.191C137.364 100.388 136.977 99.61 137.425 99.3896Z" fill="#D6D7D6"/>
</g>
</g>
<g id="Group_90">
<g id="Group_91">
<path id="Vector_45" d="M147.556 97.5662C153.122 93.3593 157.998 88.3203 162.901 83.1694C163.263 82.7892 163.758 83.4404 163.443 83.8516C159.002 89.6196 153.532 94.1361 147.798 98.071C147.534 98.2516 147.309 97.7536 147.556 97.5662Z" fill="#D6D7D6"/>
</g>
</g>
<g id="Group_92">
<g id="Group_93">
<path id="Vector_46" d="M155.681 95.5079C160.161 90.428 164.264 84.9121 168.752 79.8545C169.048 79.5204 169.626 80.0564 169.358 80.4528C165.476 86.1785 160.784 91.2117 156.226 96.1929C155.873 96.5773 155.336 95.8995 155.681 95.5079Z" fill="#D6D7D6"/>
</g>
</g>
<g id="Group_94">
<g id="Group_95">
<path id="Vector_47" d="M162.611 91.2666C166.749 87.36 170.473 82.9591 174.464 78.8673C174.732 78.5936 175.222 79.0308 174.994 79.3883C171.781 84.4114 167.728 88.5299 163.562 92.4615C162.91 93.0786 161.955 91.8881 162.611 91.2666Z" fill="#D6D7D6"/>
</g>
</g>
<g id="Group_96">
<g id="Group_97">
<path id="Vector_48" d="M170.308 89.5371C173.727 85.1258 176.989 80.3779 180.707 76.3107C180.97 76.0248 181.477 76.486 181.239 76.8329C178.04 81.507 174.233 85.702 170.717 90.0495C170.468 90.3597 170.068 89.8487 170.308 89.5371Z" fill="#D6D7D6"/>
</g>
</g>
<g id="Group_98">
<g id="Group_99">
<path id="Vector_49" d="M175.794 88.132C179.754 83.8701 183.122 78.7126 187.182 74.635C187.455 74.3601 187.924 74.7853 187.713 75.1587C184.785 80.3137 180.164 84.6024 176.202 88.6458C175.931 88.9214 175.528 88.4181 175.794 88.132Z" fill="#D6D7D6"/>
</g>
</g>
<g id="Group_100">
<g id="Group_101">
<path id="Vector_50" d="M182.763 85.1482C185.618 81.1749 188.32 76.3546 191.75 73.0528C191.95 72.8593 192.276 73.1536 192.131 73.4261C189.77 77.8686 186.037 81.6402 183.036 85.4903C182.871 85.7019 182.609 85.3598 182.763 85.1482Z" fill="#D6D7D6"/>
</g>
</g>
<g id="Group_102">
<g id="Group_103">
<path id="Vector_51" d="M190.357 79.342C191.834 77.2168 193.313 75.0896 194.792 72.965C194.92 72.7816 195.153 73.0051 195.021 73.1891C193.517 75.2892 192.013 77.3894 190.509 79.4915C190.442 79.587 190.29 79.4403 190.357 79.342Z" fill="#D6D7D6"/>
</g>
</g>
<g id="Group_104">
<g id="Group_105">
<path id="Vector_52" d="M112.447 131.326C112.338 131.284 112.385 131.088 112.493 131.131C112.602 131.172 112.555 131.369 112.447 131.326Z" fill="#D6D7D6"/>
</g>
</g>
<g id="Group_106">
<g id="Group_107">
<path id="Vector_53" d="M112.343 131.181C108.586 125.943 104.245 121.973 99.7922 117.605C99.532 117.349 99.8687 116.926 100.139 117.118C104.951 120.543 109.082 125.861 112.544 130.966C112.66 131.133 112.464 131.35 112.343 131.181Z" fill="#D6D7D6"/>
</g>
</g>
<g id="Group_108">
<g id="Group_109">
<path id="Vector_54" d="M114.441 128.395C111.005 124.991 107.396 121.711 104.125 118.096C103.929 117.88 104.197 117.489 104.413 117.69C107.955 120.969 111.259 124.682 114.644 128.179C114.784 128.326 114.581 128.533 114.441 128.395Z" fill="#D6D7D6"/>
</g>
</g>
<g id="Group_110">
<g id="Group_111">
<path id="Vector_55" d="M121.835 131.247C118.261 127.496 114.357 123.897 111.068 119.814C110.886 119.586 111.13 119.213 111.357 119.408C115.251 122.759 118.803 126.88 122.442 130.602C122.863 131.032 122.252 131.686 121.835 131.247Z" fill="#D6D7D6"/>
</g>
</g>
<g id="Group_112">
<g id="Group_113">
<path id="Vector_56" d="M126.596 131.908C122.935 127.891 118.394 123.922 115.356 119.279C115.168 118.993 115.408 118.561 115.702 118.791C119.897 122.07 123.59 127.151 127.271 131.191C127.727 131.691 127.051 132.408 126.596 131.908Z" fill="#D6D7D6"/>
</g>
</g>
<g id="Group_114">
<g id="Group_115">
<path id="Vector_57" d="M137.851 139.175C132.917 132.599 127.388 126.83 122.23 120.533C121.971 120.216 122.329 119.672 122.635 119.963C128.373 125.407 133.349 132.351 138.054 138.959C138.173 139.128 137.976 139.342 137.851 139.175Z" fill="#D6D7D6"/>
</g>
</g>
<g id="Group_116">
<g id="Group_117">
<path id="Vector_58" d="M137.51 133.253C134.411 129.64 131.134 126.128 128.208 122.328C127.995 122.053 128.317 121.725 128.546 121.969C131.784 125.412 134.769 129.256 137.848 132.894C138.069 133.156 137.732 133.512 137.51 133.253Z" fill="#D6D7D6"/>
</g>
</g>
<g id="Group_118">
<g id="Group_119">
<path id="Vector_59" d="M144.127 135.03C140.269 131.161 136.043 127.465 132.494 123.219C132.305 122.993 132.558 122.621 132.782 122.813C136.895 126.344 140.63 130.732 144.462 134.672C144.7 134.914 144.362 135.266 144.127 135.03Z" fill="#D6D7D6"/>
</g>
</g>
<g id="Group_120">
<g id="Group_121">
<path id="Vector_60" d="M146.66 135.548C144.399 132.419 142.139 129.292 139.877 126.163C139.595 125.771 140.067 125.264 140.351 125.657C142.613 128.786 144.873 131.913 147.134 135.043C147.417 135.435 146.944 135.943 146.66 135.548Z" fill="#D6D7D6"/>
</g>
</g>
<g id="Group_122">
<g id="Group_123">
<path id="Vector_61" d="M152.158 136.533C149.615 133.236 146.587 130.002 144.45 126.35C144.283 126.067 144.634 125.847 144.826 126.049C147.612 129.005 149.939 132.956 152.361 136.317C152.483 136.485 152.285 136.698 152.158 136.533Z" fill="#D6D7D6"/>
</g>
</g>
<g id="Group_124">
<g id="Group_125">
<path id="Vector_62" d="M157.18 135.875C154.344 133.119 151.353 130.476 148.66 127.53C148.542 127.399 148.701 127.171 148.834 127.286C151.784 129.869 154.536 132.848 157.353 135.632C157.477 135.754 157.307 135.998 157.18 135.875Z" fill="#D6D7D6"/>
</g>
</g>
<g id="Group_126">
<g id="Group_127">
<path id="Vector_63" d="M166.319 128.509C164.122 128.582 161.924 128.654 159.727 128.727C159.667 128.728 159.668 128.619 159.726 128.617C161.923 128.544 164.121 128.472 166.318 128.4C166.38 128.399 166.379 128.508 166.319 128.509Z" fill="#D6D7D6"/>
</g>
</g>
<g id="Group_128">
<g id="Group_129">
<path id="Vector_64" d="M161.212 126.465C158.695 126.714 156.177 126.96 153.66 127.209C153.421 127.233 153.322 126.802 153.562 126.781C156.089 126.569 158.614 126.356 161.14 126.143C161.315 126.128 161.394 126.446 161.212 126.465Z" fill="#D6D7D6"/>
</g>
</g>
<g id="Group_130">
<g id="Group_131">
<path id="Vector_65" d="M154.591 123.931C151.185 125.439 147.585 126.534 143.828 126.203C143.62 126.185 143.561 125.804 143.778 125.768C147.388 125.175 150.948 124.679 154.376 123.311C154.67 123.192 154.885 123.8 154.591 123.931Z" fill="#D6D7D6"/>
</g>
</g>
<g id="Group_132">
<g id="Group_133">
<path id="Vector_66" d="M151.806 121.761C148.542 122.538 145.311 123.466 141.957 123.747C141.593 123.778 141.464 123.233 141.807 123.1C144.951 121.884 148.259 121.305 151.533 120.574C152.186 120.429 152.457 121.606 151.806 121.761Z" fill="#D6D7D6"/>
</g>
</g>
<g id="Group_134">
<g id="Group_135">
<path id="Vector_67" d="M147.509 121.066C144.339 121.553 141.175 122.15 137.973 122.409C137.326 122.461 137.212 121.244 137.822 121.105C140.893 120.4 144.047 120.036 147.161 119.558C147.997 119.432 148.347 120.938 147.509 121.066Z" fill="#D6D7D6"/>
</g>
</g>
<g id="Group_136">
<g id="Group_137">
<path id="Vector_68" d="M140.15 119.447C134.987 120.746 129.703 121.901 124.334 121.874C123.856 121.871 123.746 120.972 124.221 120.897C129.464 120.066 134.73 119.603 139.926 118.479C140.461 118.365 140.679 119.313 140.15 119.447Z" fill="#D6D7D6"/>
</g>
</g>
<g id="Group_138">
<g id="Group_139">
<path id="Vector_69" d="M130.887 117.052C126.12 118.288 120.994 119.25 116.014 118.433C115.642 118.372 115.653 117.806 116.012 117.779C120.963 117.388 125.848 117.384 130.714 116.303C131.127 116.21 131.295 116.945 130.887 117.052Z" fill="#D6D7D6"/>
</g>
</g>
<g id="Group_140">
<g id="Group_141">
<path id="Vector_70" d="M128.072 114.096C121.912 115.496 115.448 117.01 109.06 116.75C108.686 116.734 108.605 116.065 108.972 115.991C115.205 114.736 121.586 114.352 127.825 113.022C128.417 112.897 128.663 113.962 128.072 114.096Z" fill="#D6D7D6"/>
</g>
</g>
<g id="Group_142">
<g id="Group_143">
<path id="Vector_71" d="M122.134 112.814C116.239 113.892 110.134 114.996 104.085 114.851C103.559 114.839 103.423 113.829 103.959 113.769C109.956 113.105 115.985 112.95 121.961 112.063C122.376 112.002 122.553 112.736 122.134 112.814Z" fill="#D6D7D6"/>
</g>
</g>
<g id="Group_144">
<g id="Group_145">
<path id="Vector_72" d="M125.787 100.62C123.485 100.848 121.183 101.074 118.881 101.302C118.467 101.343 118.285 100.605 118.709 100.55C120.995 100.251 123.279 99.9518 125.565 99.6513C126.106 99.5827 126.325 100.567 125.787 100.62Z" fill="#D6D7D6"/>
</g>
</g>
<g id="Group_146">
<g id="Group_147">
<path id="Vector_73" d="M126.757 97.8022C124.457 97.938 122.155 98.0731 119.856 98.2089C119.432 98.2335 119.333 97.3936 119.755 97.3412C122.038 97.0602 124.323 96.7818 126.606 96.5009C127.412 96.4027 127.579 97.7536 126.757 97.8022Z" fill="#D6D7D6"/>
</g>
</g>
<g id="Group_148">
<g id="Group_149">
<path id="Vector_74" d="M130.84 94.2742C128.371 94.4066 125.902 94.539 123.433 94.6714C122.956 94.6961 122.844 93.7559 123.319 93.6951C125.767 93.3826 128.215 93.0701 130.664 92.7557C131.603 92.6365 131.799 94.2229 130.84 94.2742Z" fill="#D6D7D6"/>
</g>
</g>
<g id="Group_150">
<g id="Group_151">
<path id="Vector_75" d="M139.542 89.2491C135.472 89.7482 131.408 90.507 127.278 90.3202C126.734 90.2964 126.642 89.3703 127.152 89.2362C131.065 88.2105 135.163 88.1027 139.195 87.7463C140.023 87.6729 140.392 89.1448 139.542 89.2491Z" fill="#D6D7D6"/>
</g>
</g>
<g id="Group_152">
<g id="Group_153">
<path id="Vector_76" d="M139.637 84.4753C136.69 84.1111 133.899 84.5487 130.981 84.4636C130.591 84.4519 130.553 83.8196 130.895 83.7094C133.604 82.8243 136.819 83.248 139.636 83.7147C140.053 83.7819 140.067 84.5269 139.637 84.4753Z" fill="#D6D7D6"/>
</g>
</g>
<g id="Group_154">
<g id="Group_155">
<path id="Vector_77" d="M139.093 79.8258C137.082 80.0759 135.07 80.3234 133.06 80.5735C132.821 80.6034 132.721 80.1733 132.962 80.1441C134.972 79.894 136.984 79.6464 138.995 79.3963C139.232 79.3658 139.332 79.794 139.093 79.8258Z" fill="#D6D7D6"/>
</g>
</g>
<g id="Group_156">
<g id="Group_157">
<path id="Vector_78" d="M140.365 76.8869C138.512 77.0821 136.66 77.2773 134.809 77.475C134.513 77.5056 134.383 76.9824 134.685 76.9379C136.521 76.6697 138.357 76.404 140.192 76.1358C140.614 76.0732 140.783 76.8414 140.365 76.8869Z" fill="#D6D7D6"/>
</g>
</g>
<g id="Group_158">
<g id="Group_159">
<path id="Vector_79" d="M148.912 71.9203C146.997 72.1201 145.081 72.3218 143.165 72.5235C141.485 72.7003 139.75 73.0917 138.048 72.8815C137.614 72.8277 137.539 72.1431 137.947 72.0152C139.563 71.5117 141.357 71.5918 143.042 71.4706C144.964 71.3316 146.887 71.1925 148.809 71.0554C149.234 71.0249 149.336 71.8773 148.912 71.9203Z" fill="#D6D7D6"/>
</g>
</g>
<g id="Group_160">
<g id="Group_161">
<path id="Vector_80" d="M150.782 66.4923C148.676 66.9778 146.571 67.4639 144.465 67.9475C144.168 68.0154 144.047 67.4851 144.341 67.4076C146.429 66.8507 148.518 66.2937 150.608 65.7348C151.018 65.6261 151.195 66.3969 150.782 66.4923Z" fill="#D6D7D6"/>
</g>
</g>
<g id="Group_162">
<g id="Group_163">
<path id="Vector_81" d="M106.76 107.682C108.072 104.089 109.384 100.495 110.696 96.9018C110.832 96.5315 111.294 96.7779 111.15 97.1515C109.777 100.711 108.405 104.271 107.032 107.831C106.967 108.003 106.697 107.857 106.76 107.682Z" fill="#D6D7D6"/>
</g>
</g>
<g id="Group_164">
<g id="Group_165">
<path id="Vector_82" d="M110.117 106.374C111.409 101.456 112.699 96.5388 113.991 91.6204C114.118 91.1341 114.799 91.3838 114.668 91.8708C113.344 96.7775 112.021 101.682 110.697 106.589C110.585 107.005 110.007 106.793 110.117 106.374Z" fill="#D6D7D6"/>
</g>
</g>
<g id="Group_166">
<g id="Group_167">
<path id="Vector_83" d="M113.668 104.713C114.817 98.8594 115.642 92.7218 117.253 87.0354C117.412 86.4742 118.114 86.7537 118.027 87.3219C117.112 93.2355 115.339 99.0484 113.959 104.82C113.908 105.031 113.627 104.925 113.668 104.713Z" fill="#D6D7D6"/>
</g>
</g>
<g id="Group_168">
<g id="Group_169">
<path id="Vector_84" d="M117.263 96.5842C118.435 91.6866 119.273 86.7148 119.766 81.6257C119.836 80.9082 120.828 80.9599 120.761 81.6873C120.29 86.8841 119.482 91.9736 118.317 96.9822C118.139 97.7518 117.079 97.3518 117.263 96.5842Z" fill="#D6D7D6"/>
</g>
</g>
<g id="Group_170">
<g id="Group_171">
<path id="Vector_85" d="M121.533 92.7015C122.402 87.2678 122.766 81.6959 123.687 76.2887C123.752 75.9127 124.288 76.0325 124.274 76.4144C124.081 81.9428 122.917 87.5033 121.915 92.8457C121.863 93.1331 121.489 92.9857 121.533 92.7015Z" fill="#D6D7D6"/>
</g>
</g>
<g id="Group_172">
<g id="Group_173">
<path id="Vector_86" d="M126.11 84.9429C126.94 80.7842 127.371 75.9846 128.861 72.1119C129.018 71.707 129.632 71.9607 129.604 72.3899C129.328 76.6714 127.749 81.0912 126.784 85.1952C126.668 85.6867 126.012 85.437 126.11 84.9429Z" fill="#D6D7D6"/>
</g>
</g>
<g id="Group_174">
<g id="Group_175">
<path id="Vector_87" d="M129.827 79.1855C130.562 75.2668 130.869 70.5332 132.347 66.9431C132.519 66.5239 133.078 66.8067 133.087 67.2228C133.168 71.2859 131.775 75.7321 131.075 79.6574C130.907 80.5799 129.654 80.108 129.827 79.1855Z" fill="#D6D7D6"/>
</g>
</g>
<g id="Group_176">
<g id="Group_177">
<path id="Vector_88" d="M135.766 72.1686C136.683 67.4267 137.09 61.7361 138.874 57.3791C139.039 56.9754 139.635 57.2264 139.617 57.6569C139.408 62.5424 137.458 67.7231 136.346 72.3852C136.243 72.8059 135.685 72.5906 135.766 72.1686Z" fill="#D6D7D6"/>
</g>
</g>
<g id="Group_178">
<g id="Group_179">
<path id="Vector_89" d="M142.431 64.7104C143.053 61.088 143.366 57.0819 144.445 53.6287C144.584 53.1847 145.282 53.255 145.23 53.7967C144.874 57.5205 143.645 61.2596 142.817 64.8546C142.752 65.1377 142.384 64.9935 142.431 64.7104Z" fill="#D6D7D6"/>
</g>
</g>
<g id="Group_180">
<g id="Group_181">
<path id="Vector_90" d="M146.729 57.5725C147.02 55.6745 147.313 53.7772 147.605 51.8772C147.649 51.593 148.037 51.7373 147.989 52.0222C147.665 53.9076 147.342 55.7937 147.017 57.681C146.98 57.8945 146.697 57.7833 146.729 57.5725Z" fill="#D6D7D6"/>
</g>
</g>
<g id="Group_182">
<g id="Group_183">
<path id="Vector_91" d="M152.81 60.6121C149.873 61.8557 146.964 63.2128 143.948 64.218C143.694 64.303 143.523 63.8153 143.767 63.6969C146.647 62.3036 149.662 61.2497 152.628 60.091C152.877 59.9938 153.057 60.5059 152.81 60.6121Z" fill="#D6D7D6"/>
</g>
</g>
<g id="Group_184">
<g id="Group_185">
<path id="Vector_92" d="M51.105 112.733C49.9967 112.47 48.888 112.209 47.7813 111.946C47.6036 111.904 47.6781 111.591 47.8561 111.64C48.9562 111.937 50.0563 112.234 51.1552 112.528C51.275 112.563 51.2229 112.761 51.105 112.733Z" fill="#D6D7D6"/>
</g>
</g>
<g id="Group_186">
<g id="Group_187">
<path id="Vector_93" d="M55.4393 111.75C52.9521 111.587 50.5062 111.136 48.0735 110.4C47.6604 110.275 47.834 109.546 48.2476 109.683C50.615 110.473 53.0072 110.981 55.4395 111.213C55.7405 111.24 55.7438 111.77 55.4393 111.75Z" fill="#D6D7D6"/>
</g>
</g>
<g id="Group_188">
<g id="Group_189">
<path id="Vector_94" d="M67.9659 109.509C62.2035 109.761 56.425 109.561 50.7564 107.724C50.4991 107.641 50.552 107.167 50.8183 107.199C56.5538 107.83 62.2197 108.712 67.9643 108.647C68.4521 108.639 68.4422 109.489 67.9659 109.509Z" fill="#D6D7D6"/>
</g>
</g>
<g id="Group_190">
<g id="Group_191">
<path id="Vector_95" d="M66.1802 106.709C62.2797 106.794 57.9817 106.88 54.1165 105.753C53.7977 105.66 53.8793 105.105 54.1895 105.12C58.1973 105.319 62.1506 106.075 66.1774 106.06C66.544 106.06 66.5394 106.702 66.1802 106.709Z" fill="#D6D7D6"/>
</g>
</g>
<g id="Group_192">
<g id="Group_193">
<path id="Vector_96" d="M67.6122 103.882C64.3384 103.821 60.8349 104.155 57.5734 103.582C57.2802 103.531 57.1583 102.981 57.4998 102.936C60.7563 102.518 64.309 103.021 67.6097 103.122C68.0361 103.133 68.034 103.889 67.6122 103.882Z" fill="#D6D7D6"/>
</g>
</g>
<g id="Group_194">
<g id="Group_195">
<path id="Vector_97" d="M70.7456 101.245C67.7081 101.27 64.4484 101.682 61.4134 101.21C60.9607 101.139 60.8006 100.327 61.3007 100.239C64.3187 99.7113 67.6628 100.07 70.7419 100.047C71.4117 100.041 71.4099 101.238 70.7456 101.245Z" fill="#D6D7D6"/>
</g>
</g>
<g id="Group_196">
<g id="Group_197">
<path id="Vector_98" d="M72.6295 97.0131C70.3642 97.4067 68.0432 98.0255 65.738 98.1425C65.466 98.1574 65.4237 97.6621 65.6759 97.6002C67.8897 97.0477 70.2876 96.9707 72.5548 96.6918C72.7335 96.6698 72.8106 96.9816 72.6295 97.0131Z" fill="#D6D7D6"/>
</g>
</g>
<g id="Group_198">
<g id="Group_199">
<path id="Vector_99" d="M74.8294 93.3523C72.7876 93.7892 70.7457 94.2261 68.7044 94.6611C68.406 94.7239 68.2842 94.17 68.5805 94.1231C70.6479 93.7937 72.7132 93.4655 74.7805 93.1361C74.8983 93.1174 74.9486 93.3279 74.8294 93.3523Z" fill="#D6D7D6"/>
</g>
</g>
<g id="Group_200">
<g id="Group_201">
<path id="Vector_100" d="M75.5324 91.2943C73.9837 91.679 72.4361 92.0664 70.8874 92.4511C70.4741 92.5549 70.3039 91.8064 70.714 91.6931C72.2532 91.2712 73.7942 90.85 75.3334 90.4281C75.8036 90.3007 76.0038 91.1777 75.5324 91.2943Z" fill="#D6D7D6"/>
</g>
</g>
<g id="Group_202">
<g id="Group_203">
<path id="Vector_101" d="M51.2656 104.732C52.129 101.636 53.3177 98.4669 55.1445 96.0121C55.3603 95.722 55.7692 96.1483 55.6069 96.4611C54.169 99.2353 52.8065 101.853 51.9319 104.988C51.7987 105.465 51.1314 105.213 51.2656 104.732Z" fill="#D6D7D6"/>
</g>
</g>
<g id="Group_204">
<g id="Group_205">
<path id="Vector_102" d="M56.2233 102.281C57.0738 99.409 57.9238 96.5388 58.7742 93.6667C58.916 93.1855 59.6027 93.4524 59.4471 93.9197C58.5018 96.7562 57.5551 99.59 56.608 102.426C56.5188 102.691 56.1409 102.557 56.2233 102.281Z" fill="#D6D7D6"/>
</g>
</g>
<g id="Group_206">
<g id="Group_207">
<path id="Vector_103" d="M58.9883 98.5444C59.7317 95.5382 60.7108 92.6644 61.9241 89.8967C62.1205 89.4479 62.7122 89.8947 62.5216 90.3435C61.3651 93.0657 60.4501 95.888 59.7554 98.8349C59.6223 99.3941 58.8499 99.1015 58.9883 98.5444Z" fill="#D6D7D6"/>
</g>
</g>
<g id="Group_208">
<g id="Group_209">
<path id="Vector_104" d="M63.5315 95.5692C64.0276 93.2468 64.6834 90.2056 66.1095 88.4402C66.3021 88.2026 66.7021 88.4975 66.6045 88.808C66.2731 89.8522 65.6694 90.7517 65.2317 91.7381C64.6698 93.0033 64.2092 94.3222 63.8197 95.679C63.7593 95.8827 63.4863 95.7809 63.5315 95.5692Z" fill="#D6D7D6"/>
</g>
</g>
<g id="Group_210">
<g id="Group_211">
<path id="Vector_105" d="M68.2196 91.8241C68.492 89.7223 69.0728 87.7762 69.9574 85.9496C70.1395 85.5754 70.6653 85.9627 70.4692 86.3316C69.5501 88.0716 68.9324 89.941 68.6031 91.9694C68.5562 92.2586 68.1821 92.106 68.2196 91.8241Z" fill="#D6D7D6"/>
</g>
</g>
<g id="Group_212">
<g id="Group_213">
<path id="Vector_106" d="M53.5444 71.9177C58.2212 67.5732 61.3674 62.2321 64.9057 56.7306C65.2858 56.1382 66.3222 56.5716 66.0584 57.3847C63.9325 63.9475 58.9859 69.0985 53.953 72.5732C53.6333 72.792 53.2514 72.1897 53.5444 71.9177Z" fill="#D6D7D6"/>
</g>
</g>
<g id="Group_214">
<g id="Group_215">
<path id="Vector_107" d="M56.061 66.6812C58.2784 63.1592 60.0021 59.291 62.0614 55.6476C62.2839 55.2527 62.949 55.5685 62.7777 56.0498C61.2854 60.2074 58.8344 63.6002 56.2143 66.8308C56.1418 66.9209 55.9976 66.7812 56.061 66.6812Z" fill="#D6D7D6"/>
</g>
</g>
<g id="Group_216">
<g id="Group_217">
<path id="Vector_108" d="M54.8367 62.9896C57.1621 59.632 58.8682 56.007 60.6239 52.2141C60.7733 51.8892 61.2777 52.1617 61.1609 52.5164C59.8443 56.5071 57.7041 60.1512 55.428 63.4375C55.1648 63.8194 54.5687 63.3761 54.8367 62.9896Z" fill="#D6D7D6"/>
</g>
</g>
<g id="Group_218">
<g id="Group_219">
<path id="Vector_109" d="M54.9484 57.7513C56.1204 55.7066 57.1828 53.5875 58.0657 51.3438C58.9464 49.1013 59.4307 46.6468 60.3798 44.4607C60.6186 43.9094 61.2531 44.3981 61.1908 44.9113C60.6207 49.6343 57.7509 54.424 55.3722 58.0709C55.1909 58.3509 54.775 58.0537 54.9484 57.7513Z" fill="#D6D7D6"/>
</g>
</g>
<g id="Group_220">
<g id="Group_221">
<path id="Vector_110" d="M56.0525 51.1768C57.2681 47.3117 58.2273 43.0665 59.8717 39.4388C60.0771 38.9863 60.7145 39.3587 60.5983 39.8383C59.6409 43.7836 57.8343 47.575 56.4372 51.3198C56.3404 51.5774 55.9663 51.4536 56.0525 51.1768Z" fill="#D6D7D6"/>
</g>
</g>
<g id="Group_222">
<g id="Group_223">
<path id="Vector_111" d="M54.7682 48.1039C56.7065 43.9583 57.5253 39.6318 58.7767 35.1856C58.8914 34.7749 59.4656 34.8687 59.4603 35.3337C59.4023 40.0819 57.5954 44.7679 55.7082 48.8052C55.3829 49.5017 54.4429 48.8004 54.7682 48.1039Z" fill="#D6D7D6"/>
</g>
</g>
<g id="Group_224">
<g id="Group_225">
<path id="Vector_112" d="M53.9254 44.5332C54.6576 41.0621 55.1168 37.2426 56.2719 33.948C56.347 33.7354 56.6926 33.7554 56.6655 34.0314C56.2956 37.6197 55.1166 41.2087 54.312 44.6768C54.2469 44.9582 53.8656 44.8166 53.9254 44.5332Z" fill="#D6D7D6"/>
</g>
</g>
<g id="Group_226">
<g id="Group_227">
<path id="Vector_113" d="M51.9183 67.1661C49.4991 65.3694 47.0779 63.5739 44.6587 61.7772C44.5539 61.7005 44.6502 61.5197 44.7546 61.5983C47.1737 63.395 49.5945 65.1924 52.0142 66.9872C52.119 67.064 52.0227 67.2447 51.9183 67.1661Z" fill="#D6D7D6"/>
</g>
</g>
<g id="Group_228">
<g id="Group_229">
<path id="Vector_114" d="M52.1251 65.1369C50.7485 63.9877 49.3702 62.8379 47.9935 61.6887C46.7805 60.6766 45.4173 59.7594 44.3966 58.4851C44.1209 58.1401 44.4011 57.489 44.8113 57.698C47.5922 59.1163 50.2541 61.9238 52.7511 63.963C53.413 64.5037 52.7847 65.687 52.1251 65.1369Z" fill="#D6D7D6"/>
</g>
</g>
<g id="Group_230">
<g id="Group_231">
<path id="Vector_115" d="M51.9083 61.478C49.1912 59.2215 46.3399 57.0844 43.8087 54.547C43.5493 54.2869 43.8841 53.8778 44.1546 54.0618C47.0049 55.9987 49.6504 58.4316 52.3402 60.6653C52.7954 61.0416 52.3664 61.8574 51.9083 61.478Z" fill="#D6D7D6"/>
</g>
</g>
<g id="Group_232">
<g id="Group_233">
<path id="Vector_116" d="M52.9533 57.6116C49.5574 54.1196 45.8549 51.9446 42.1031 49.1303C41.7834 48.8891 41.9971 48.3195 42.3585 48.4553C46.4992 50.0108 50.3355 53.6051 53.5586 56.9695C53.9769 57.4044 53.3679 58.0389 52.9533 57.6116Z" fill="#D6D7D6"/>
</g>
</g>
<g id="Group_234">
<g id="Group_235">
<path id="Vector_117" d="M52.4127 52.6167C49.1973 49.53 45.7018 47.4098 42.24 44.8026C41.7507 44.4345 42.0736 43.4783 42.6412 43.7406C46.4159 45.4863 49.8869 48.7798 52.9314 51.8896C53.2974 52.264 52.7936 52.9824 52.4127 52.6167Z" fill="#D6D7D6"/>
</g>
</g>
<g id="Group_236">
<g id="Group_237">
<path id="Vector_118" d="M51.703 48.1069C48.8746 45.3523 45.8134 43.9232 42.6718 41.8416C42.121 41.4758 42.5311 40.6344 43.073 40.7814C46.5001 41.7177 49.738 44.7165 52.3099 47.4658C52.7269 47.912 52.1203 48.5142 51.703 48.1069Z" fill="#D6D7D6"/>
</g>
</g>
<g id="Group_238">
<g id="Group_239">
<path id="Vector_119" d="M48.9127 41.7832C45.9365 40.2241 42.6283 38.9137 39.9043 36.7862C39.5046 36.4724 39.7637 35.7493 40.2318 35.9234C43.3411 37.0691 46.2978 39.2741 49.2024 41.0164C49.5833 41.2434 49.3058 41.9903 48.9127 41.7832Z" fill="#D6D7D6"/>
</g>
</g>
<g id="Group_240">
<g id="Group_241">
<path id="Vector_120" d="M45.5126 35.3548C43.8284 34.398 42.1442 33.4412 40.4583 32.4837C40.2179 32.3483 40.3957 31.8701 40.6399 32.0049C42.3372 32.9299 44.033 33.8542 45.7303 34.7792C46.1059 34.984 45.8913 35.5689 45.5126 35.3548Z" fill="#D6D7D6"/>
</g>
</g>
<g id="Group_242">
<g id="Group_243">
<path id="Vector_121" d="M50.628 36.7867C51.126 34.6246 51.6241 32.4625 52.1244 30.299C52.238 29.8057 52.8864 30.0595 52.7958 30.5528C52.3923 32.7507 51.9907 34.9493 51.5868 37.1492C51.4564 37.8545 50.4653 37.4907 50.628 36.7867Z" fill="#D6D7D6"/>
</g>
</g>
<g id="Group_244">
<g id="Group_245">
<path id="Vector_122" d="M48.9943 30.2623C49.02 28.5442 49.0463 26.8242 49.072 25.1061C49.0749 24.8878 49.3696 24.9068 49.3667 25.1252C49.3409 26.8432 49.3147 28.5633 49.2889 30.2813C49.2873 30.5023 48.9909 30.4826 48.9943 30.2623Z" fill="#D6D7D6"/>
</g>
</g>
<g id="Group_246">
<g id="Group_247">
<path id="Vector_123" d="M44.9447 25.8389C44.8538 24.005 44.7629 22.1711 44.6703 20.3366C44.6454 19.8237 45.318 19.8786 45.352 20.3843C45.4762 22.2205 45.5999 24.0586 45.7224 25.8941C45.763 26.4752 44.9736 26.4218 44.9447 25.8389Z" fill="#D6D7D6"/>
</g>
</g>
</g>
</svg>
