<svg width="118" height="145" viewBox="0 0 118 145" fill="none" xmlns="http://www.w3.org/2000/svg">
<g id="Group" opacity="0.4">
<g id="Group_2">
<g id="Group_3">
<g id="Group_4">
<path id="Vector" d="M21.9051 22.0558C21.6713 22.022 21.4358 21.99 21.2019 21.9562C20.963 21.9225 20.3903 22.2582 20.802 22.2144C21.1426 22.1789 21.4832 22.1435 21.8238 22.1081C21.8373 22.1064 21.9492 22.0625 21.9051 22.0558Z" fill="#D6D7D6"/>
</g>
</g>
<g id="Group_5">
<g id="Group_6">
<path id="Vector_2" d="M23.0024 19.9823C9.0711 30.8374 3.80832 47.6304 1.02444 64.5012C-1.37482 79.0362 0.39073 93.6135 6.84467 106.925C21.7875 137.747 56.7377 147.444 88.8227 143.221C104.579 141.145 119.922 134.727 130.933 123.012C142.572 110.628 147.391 92.1459 148.692 75.5865C150.073 58.0115 141.413 42.3188 131.942 28.1782C122.614 14.2509 109.975 7.22122 93.8229 3.15034C59.3166 -5.54491 18.8139 7.2974 6.22622 43.0686C6.04661 43.5815 6.90059 43.9522 7.11578 43.4427C18.8562 15.6795 47.8388 1.21395 77.2415 3.45336C92.7418 4.63315 112.332 9.55375 123.077 21.5548C132.502 32.0815 141.75 47.2394 144.921 61.055C148.575 76.983 143.702 99.2366 135.159 113.164C126.863 126.687 112.434 135.358 97.2658 139.074C67.6225 146.335 30.6898 139.923 12.9394 113.155C-5.11265 85.9321 -0.673346 42.7436 23.4328 20.4037C23.7191 20.1363 23.2989 19.7504 23.0024 19.9823Z" fill="#D6D7D6"/>
</g>
</g>
<g id="Group_7">
<g id="Group_8">
<path id="Vector_3" d="M63.8198 66.1706C60.3768 60.3478 56.5491 54.8804 52.669 49.3437C48.6025 43.5395 36.6265 31.6384 46.393 24.2228C50.7103 21.4011 54.6379 21.5179 58.1758 24.5749C62.2626 25.3755 63.8605 27.9026 62.9726 32.158C63.3657 35.4418 63.63 38.7476 63.8571 42.0466C64.0079 44.2217 65.3075 63.8973 63.6978 63.8634C62.0271 63.8262 62.0271 66.4194 63.6978 66.4549C64.3501 66.4685 65.0025 66.4837 65.6531 66.4972C66.3648 66.5125 66.9375 65.8913 66.951 65.2007C67.0984 57.4736 66.9849 49.7584 66.4512 42.0466C66.1021 36.9821 66.6494 28.2936 63.874 23.7606C60.7106 18.5929 52.8317 19.0195 47.7332 20.8307C41.5148 23.0379 37.5432 29.008 40.1373 35.4469C42.4467 41.1817 47.9162 46.8419 51.4778 51.8319C55.1513 56.981 58.8162 62.0404 62.876 66.895C63.3182 67.4316 64.1604 66.7478 63.8198 66.1706Z" fill="#D6D7D6"/>
</g>
</g>
<g id="Group_9">
<g id="Group_10">
<path id="Vector_4" d="M68.1435 65.1615C69.8447 58.7953 70.1903 52.2058 70.3073 45.6365C70.453 37.4575 66.8117 20.0636 78.9334 18.354C89.3099 16.8898 90.4705 28.2392 87.1411 35.0928C85.3789 38.7219 83.3202 42.2461 81.3039 45.7398C80.2432 47.5763 69.5617 63.7159 69.8006 63.9597C69.316 63.4654 68.1927 63.7954 68.2977 64.5808C68.4282 65.5643 68.518 65.8538 69.455 66.3091C69.9802 66.5647 70.536 66.5122 70.9715 66.1127C74.9211 62.5006 77.5881 56.7997 80.3703 52.2244C83.9115 46.3999 87.8273 40.3029 90.462 33.9858C93.3188 27.1373 92.9697 19.8097 85.1196 16.8289C77.5881 13.9683 70.9681 16.0334 68.8823 23.7909C67.2692 29.7914 68.3096 36.2777 68.457 42.373C68.64 49.9748 67.8606 57.5563 68.052 65.1462C68.0537 65.2021 68.13 65.2139 68.1435 65.1615Z" fill="#D6D7D6"/>
</g>
</g>
<g id="Group_11">
<g id="Group_12">
<path id="Vector_5" d="M74.1496 67.4095C78.6719 59.8111 84.8852 53.1149 90.4259 46.2359C95.6328 39.7716 101.746 28.3088 110.24 37.5372C114.217 41.8569 118.356 47.7745 116.465 54.1255C114.478 60.803 108.541 61.9693 102.988 63.2811C97.234 64.642 80.368 71.2502 75.7186 66.3448C74.5257 65.0855 72.6466 66.9779 73.8192 68.2423C76.437 71.0691 79.1887 71.0335 82.9316 70.546C90.8936 69.5084 99.3943 67.2927 107.092 65.0076C116.738 62.1453 121.823 54.2558 117.34 44.4789C114.952 39.2722 107.482 28.148 100.658 31.9311C95.3193 34.8899 91.0664 42.9656 87.3218 47.6476C82.3843 53.8207 76.8148 59.7773 73.2702 66.8966C72.9804 67.4789 73.8124 67.98 74.1496 67.4095Z" fill="#D6D7D6"/>
</g>
</g>
<g id="Group_13">
<g id="Group_14">
<path id="Vector_6" d="M62.2027 77.9837C53.9087 81.5349 46.0382 86.3522 38.5981 91.4455C34.5841 94.1927 29.2909 97.8979 28.1285 103.003C25.7801 113.325 37.5629 121.837 45.7163 124.866C59.1833 129.869 60.7083 119.153 62.4721 108.244C63.7565 100.298 65.8151 92.1175 66.3573 84.0976C66.598 80.5362 66.1184 77.9024 62.3705 77.1085C60.8252 76.7819 60.3084 78.8638 61.73 79.4292C66.0558 81.149 60.4541 102.235 59.8831 105.876C59.3477 109.29 59.5239 114.64 57.96 117.728C53.6054 126.325 46.6618 122.887 41.199 119.688C36.8783 117.159 32.0121 113.242 30.7667 108.09C28.6894 99.4924 37.5154 94.5786 43.0493 90.9495C49.5168 86.7077 56.1893 82.8636 62.3162 78.1259C62.4043 78.0582 62.2891 77.9464 62.2027 77.9837Z" fill="#D6D7D6"/>
</g>
</g>
<g id="Group_15">
<g id="Group_16">
<path id="Vector_7" d="M53.086 84.1582C54.799 83.0444 56.5578 81.9747 58.22 80.7847C58.952 80.26 59.6467 79.6049 60.4227 79.1512C61.0344 78.7941 61.707 78.7264 62.3407 78.4251C62.6 78.3015 62.7542 77.9105 62.661 77.6414C62.6322 77.5601 62.6034 77.4772 62.5746 77.3943C62.4373 77.0016 62.0578 76.6156 61.6003 76.6529C59.972 76.79 58.9181 78.0206 57.754 79.0599C56.0495 80.5816 54.4737 82.2506 52.8623 83.8687C52.7166 84.0126 52.9064 84.275 53.086 84.1582Z" fill="#D6D7D6"/>
</g>
</g>
<g id="Group_17">
<g id="Group_18">
<path id="Vector_8" d="M21.3789 64.3949C17.8732 64.3086 16.2533 66.3059 15.2587 69.5322C13.7456 74.4375 13.2543 83.8691 15.2672 88.7423C20.1623 100.598 36.5488 91.1967 43.5059 86.9447C48.2435 84.0502 67.3867 74.6898 55.4361 69.4526C47.5199 65.9826 37.4011 64.791 28.9223 63.3488C23.9069 62.4957 19.1999 61.3346 16.5821 66.4667C15.9026 67.7989 17.7495 68.872 18.5831 67.6347C22.4023 61.9575 37.2113 67.5179 42.9536 68.8652C46.893 69.7894 51.3848 69.6151 52.9047 73.7452C54.8956 75.8221 54.5212 77.288 51.783 78.1445C50.2242 79.2972 48.6467 80.4262 47.0506 81.5282C42.7113 84.4954 32.4924 92.3951 27.3262 91.5267C23.7968 89.0334 20.2673 86.5418 16.7362 84.0485C16.6498 82.5166 16.6617 80.9848 16.7718 79.4546C16.8854 76.0862 16.6176 66.1485 21.3772 65.5967C22.1312 65.5121 22.1735 64.4152 21.3789 64.3949Z" fill="#D6D7D6"/>
</g>
</g>
<g id="Group_19">
<g id="Group_20">
<path id="Vector_9" d="M59.0788 65.3258C52.3486 67.2081 41.8807 62.1758 35.2963 60.407C32.1159 59.5522 26.3753 59.2035 23.6745 57.4076C17.8237 53.5161 19.6926 47.3582 22.8679 42.8133C29.7861 32.9112 37.4837 41.3508 43.1108 47.348C48.4786 53.0675 53.2314 59.2999 57.5995 65.8066C58.2265 66.7409 59.7497 65.8658 59.1194 64.9196C55.4612 59.4269 51.5472 54.1424 47.2163 49.1591C43.6225 45.0239 39.0222 38.326 34.0729 35.7836C27.9053 32.615 21.7852 38.8609 19.2453 44.1776C16.7071 49.4926 15.8464 56.9099 22.0631 59.4862C28.6255 62.2063 36.5349 63.1152 43.4446 64.725C48.6278 65.9319 54.1684 68.2474 59.377 66.4007C60.0395 66.1603 59.7768 65.1295 59.0788 65.3258Z" fill="#D6D7D6"/>
</g>
</g>
<g id="Group_21">
<g id="Group_22">
<path id="Vector_10" d="M72.8513 80.1862C65.7755 78.2159 66.2432 104.987 66.0941 108.701C65.8738 114.189 64.8385 121.276 69.7133 125.199C73.6121 128.338 78.9952 127.618 83.509 126.677C88.2398 125.69 94.0871 124.189 96.4948 119.495C99.1601 114.297 95.8289 107.882 93.6381 103.086C91.2914 97.9491 78.9748 74.6427 71.284 79.2755C69.6049 80.286 71.0722 82.5712 72.7801 81.8331C76.3214 80.303 85.8897 95.3474 87.2638 97.6004C92.3927 106.003 98.8771 119.158 85.2898 123.244C78.2496 125.362 71.0078 127.024 68.2714 115.808C67.5377 112.802 68.2849 108.755 68.3646 105.663C68.451 102.379 68.5984 80.501 72.5785 81.1646C73.2139 81.2729 73.4952 80.3656 72.8513 80.1862Z" fill="#D6D7D6"/>
</g>
</g>
<g id="Group_23">
<g id="Group_24">
<path id="Vector_11" d="M77.5593 77.4149C81.1395 71.6428 98.4867 74.2361 104.559 73.9551C109.926 73.7046 117.089 73.0478 119.628 80.4042C121.68 86.3505 117.208 92.6862 113.613 96.8908C105.008 106.952 98.7002 98.7256 92.9511 91.5284C90.5604 88.5357 88.3068 85.2875 85.6568 82.5166C85.628 82.4861 78.6251 76.3671 80.5567 75.6884C81.1785 75.47 81.1056 74.5103 80.3974 74.5069C78.3251 74.495 77.356 75.7341 77.666 77.8364C77.8592 79.1465 80.0128 80.4363 80.804 81.215C84.2606 84.6121 87.1106 88.3716 90.1249 92.1936C93.6119 96.6149 97.8005 105.058 104.258 105.549C109.865 105.975 114.123 100.99 117.169 96.9788C122.688 89.7121 126.193 76.3062 114.594 72.6534C107.238 70.3378 98.2088 73.1951 90.6095 72.9835C85.1366 72.8311 79.8196 71.631 76.9239 77.0408C76.6934 77.4623 77.3068 77.8211 77.5593 77.4149Z" fill="#D6D7D6"/>
</g>
</g>
<g id="Group_25">
<g id="Group_26">
<path id="Vector_12" d="M11.2503 47.9995C22.7128 26.9782 44.3688 11.0264 68.7545 9.67399C95.0345 8.2166 122.384 26.7328 131.425 51.1546C141.13 77.3741 130.757 107.201 108.137 123.086C84.9326 139.382 52.4392 137.845 31.134 119.134C18.77 108.275 10.5573 97.7488 9.34068 80.822C8.35115 67.0589 8.59515 50.7128 16.8418 39.1011C17.4009 38.314 16.1233 37.6064 15.5608 38.3529C7.09391 49.5939 6.77707 64.5589 7.25997 78.0935C7.74796 91.7635 11.7298 103.208 21.5437 112.929C32.7199 123.997 43.6809 131.653 59.2456 135.026C72.7482 137.953 86.2898 136.54 98.8638 130.752C124.52 118.943 140.405 91.3809 136.298 63.2047C132.269 35.5668 110.352 16.7341 84.2175 9.93806C54.8707 2.3075 23.6854 21.9492 11.1706 47.9537C11.1452 48.0062 11.2215 48.0536 11.2503 47.9995Z" fill="#D6D7D6"/>
</g>
</g>
<g id="Group_27">
<g id="Group_28">
<path id="Vector_13" d="M102.329 54.1495C99.3008 52.3299 94.4752 55.6695 92.5724 57.8852C91.876 58.696 90.4408 60.2127 91.0389 61.3535C91.7608 62.7331 94.5463 62.3793 95.7443 62.2252C98.0317 61.9307 100.716 61.191 102.742 60.0705C104.033 59.3562 104.747 58.1679 104.642 56.6699C104.44 53.7924 100.3 51.47 98.0232 53.635C97.7826 53.8635 97.886 54.3391 98.2283 54.4085C99.0585 54.5761 99.8532 54.3611 100.68 54.5202C101.565 54.6895 102.234 55.0432 102.71 55.8066C103.569 57.1794 102.715 58.1646 101.512 58.9263C99.5651 60.1568 96.2272 60.8593 93.9652 60.8186C93.0536 60.8017 92.6452 60.9828 92.7621 60.1466C92.8231 59.7065 93.5805 58.9923 93.8533 58.691C94.6345 57.8209 95.5562 57.0795 96.5644 56.4905C97.5607 55.9082 98.6739 55.4343 99.7786 55.0873C100.673 54.8063 101.536 54.8046 102.33 54.3103C102.388 54.2731 102.39 54.1867 102.329 54.1495Z" fill="#D6D7D6"/>
</g>
</g>
<g id="Group_29">
<g id="Group_30">
<path id="Vector_14" d="M72.2562 98.8627C71.6801 101.833 71.4073 104.851 71.6666 107.874C71.7852 109.257 71.9766 110.925 73.1424 111.854C76.499 114.528 78.1307 108.954 78.2019 106.671C78.2679 104.548 77.9629 102.345 77.0158 100.425C76.4566 99.2943 75.2655 97.1971 73.7795 97.0972C69.8587 96.8298 71.365 105.718 72.0427 107.533C72.2935 108.204 73.283 108.12 73.3169 107.36C73.3796 105.935 73.156 104.542 73.1187 103.116C73.0967 102.284 72.8103 100.178 73.2746 99.5854C74.5606 97.9436 76.3007 103.318 76.4939 104.313C76.6277 105.002 77.1615 107.23 76.7311 107.957C75.423 108.492 74.115 109.027 72.8069 109.562C72.6747 109.147 72.5748 108.726 72.5121 108.294C71.9394 105.249 72.1105 101.982 72.5239 98.9372C72.5476 98.7645 72.2901 98.6833 72.2562 98.8627Z" fill="#D6D7D6"/>
</g>
</g>
<g id="Group_31">
<g id="Group_32">
<path id="Vector_15" d="M48.4634 107.959C46.464 109.6 44.5239 115.018 47.0655 116.952C50.273 119.393 52.8197 114.913 53.4008 112.42C53.8465 110.509 55.6951 103.196 52.2046 102.897C50.6407 102.763 49.397 104.674 48.6498 105.776C47.5671 107.374 46.5792 109.192 47.0452 111.143C47.1164 111.441 47.4823 111.428 47.6382 111.221C48.7091 109.803 49.0361 108.059 50.0019 106.566C50.6204 105.61 51.5726 103.719 52.7587 105.896C53.1128 106.546 52.7163 108.355 52.6519 109.093C52.4926 110.927 52.2165 115.196 50.112 116.12C46.5538 117.684 46.8317 113.818 46.9435 112.436C47.0791 110.773 47.3807 109.327 48.5956 108.088C48.6803 108.003 48.5549 107.887 48.4634 107.959Z" fill="#D6D7D6"/>
</g>
</g>
<g id="Group_33">
<g id="Group_34">
<path id="Vector_16" d="M44.6375 30.1571C45.1204 33.2902 46.4387 36.0983 48.5058 38.4986C48.8616 38.9116 49.4581 38.3107 49.1056 37.8993C47.13 35.6041 45.9168 32.9178 45.4559 29.9303C45.3729 29.3954 44.5562 29.6239 44.6375 30.1571Z" fill="#D6D7D6"/>
</g>
</g>
<g id="Group_35">
<g id="Group_36">
<path id="Vector_17" d="M50.8832 41.4225C52.1082 43.8481 53.3316 46.2737 54.5566 48.6976C54.8023 49.1834 55.5326 48.7551 55.2886 48.271C54.0636 45.8454 52.8402 43.4198 51.6152 40.9959C51.3695 40.5084 50.6392 40.9367 50.8832 41.4225Z" fill="#D6D7D6"/>
</g>
</g>
<g id="Group_37">
<g id="Group_38">
<path id="Vector_18" d="M50.6796 32.5234C51.5929 34.5732 52.5062 36.6214 53.4194 38.6712C53.6414 39.1672 54.3717 38.7372 54.1514 38.2446C53.2381 36.1948 52.3248 34.1467 51.4116 32.0969C51.1896 31.5992 50.4593 32.0291 50.6796 32.5234Z" fill="#D6D7D6"/>
</g>
</g>
<g id="Group_39">
<g id="Group_40">
<path id="Vector_19" d="M57.3893 46.3729C58.8126 49.6668 59.8818 53.0623 60.6222 56.5712C60.7341 57.1044 61.5524 56.8776 61.4389 56.3461C60.6815 52.761 59.5734 49.3097 58.1196 45.9464C57.9044 45.447 57.1741 45.8769 57.3893 46.3729Z" fill="#D6D7D6"/>
</g>
</g>
<g id="Group_41">
<g id="Group_42">
<path id="Vector_20" d="M24.036 52.1168C26.4657 53.0344 28.8955 53.9521 31.3252 54.868C31.8353 55.061 32.0572 54.2433 31.5506 54.052C29.1208 53.1343 26.6911 52.2167 24.2613 51.3007C23.7496 51.1077 23.5293 51.9255 24.036 52.1168Z" fill="#D6D7D6"/>
</g>
</g>
<g id="Group_43">
<g id="Group_44">
<path id="Vector_21" d="M35.6707 55.97C36.811 56.2729 37.9514 56.5741 39.0917 56.877C39.6186 57.0174 39.844 56.2001 39.317 56.0614C38.1767 55.7585 37.0364 55.4556 35.8961 55.1544C35.3674 55.0139 35.1437 55.8296 35.6707 55.97Z" fill="#D6D7D6"/>
</g>
</g>
<g id="Group_45">
<g id="Group_46">
<path id="Vector_22" d="M30.9961 46.1444C34.1782 47.8032 37.0553 49.8903 39.6172 52.4022C40.0069 52.7848 40.6067 52.1856 40.217 51.803C37.6043 49.2403 34.6712 47.1059 31.4248 45.4132C30.9402 45.1627 30.5115 45.8922 30.9961 46.1444Z" fill="#D6D7D6"/>
</g>
</g>
<g id="Group_47">
<g id="Group_48">
<path id="Vector_23" d="M44.6069 56.9847C45.976 58.1983 47.3451 59.412 48.7141 60.6256C49.1208 60.9862 49.7223 60.3904 49.3139 60.0264C47.9449 58.8128 46.5758 57.5991 45.2067 56.3855C44.8001 56.025 44.1986 56.6225 44.6069 56.9847Z" fill="#D6D7D6"/>
</g>
</g>
<g id="Group_49">
<g id="Group_50">
<path id="Vector_24" d="M24.8555 72.8767C27.5157 72.8005 30.1759 72.7227 32.8361 72.6466C33.38 72.6313 33.3817 71.7853 32.8361 71.8005C30.1759 71.8766 27.5157 71.9545 24.8555 72.0306C24.3116 72.0458 24.3082 72.8919 24.8555 72.8767Z" fill="#D6D7D6"/>
</g>
</g>
<g id="Group_51">
<g id="Group_52">
<path id="Vector_25" d="M27.5945 77.848C29.4939 77.6957 31.395 77.5417 33.2944 77.3878C33.8332 77.3438 33.8383 76.4977 33.2944 76.5417C31.395 76.6957 29.4956 76.848 27.5945 77.002C27.0557 77.0443 27.0506 77.892 27.5945 77.848Z" fill="#D6D7D6"/>
</g>
</g>
<g id="Group_53">
<g id="Group_54">
<path id="Vector_26" d="M22.5999 84.8254C29.2419 84.0518 35.5823 82.0511 41.4534 78.8519C41.9329 78.5913 41.5059 77.8601 41.0264 78.1207C35.2926 81.2437 29.0877 83.2224 22.5999 83.9774C22.0645 84.0417 22.0577 84.8897 22.5999 84.8254Z" fill="#D6D7D6"/>
</g>
</g>
<g id="Group_55">
<g id="Group_56">
<path id="Vector_27" d="M40.7029 76.2289C43.0344 75.8175 45.2625 75.1132 47.4144 74.1312C47.9092 73.9043 47.4788 73.1746 46.9874 73.3998C44.9016 74.3513 42.7362 75.0133 40.4776 75.4128C39.9421 75.5076 40.1692 76.3237 40.7029 76.2289Z" fill="#D6D7D6"/>
</g>
</g>
<g id="Group_57">
<g id="Group_58">
<path id="Vector_28" d="M56.2189 84.1533C53.5011 86.1016 51.151 88.4273 49.1737 91.1237C48.8517 91.5638 49.5854 91.987 49.9056 91.5503C51.7915 88.9774 54.0535 86.7431 56.6476 84.8846C57.0848 84.568 56.6629 83.8351 56.2189 84.1533Z" fill="#D6D7D6"/>
</g>
</g>
<g id="Group_59">
<g id="Group_60">
<path id="Vector_29" d="M56.03 86.8973C55.1947 87.8844 54.3593 88.8731 53.524 89.8602C53.175 90.2733 53.7697 90.876 54.1238 90.4595C54.9592 89.4725 55.7945 88.4837 56.6298 87.4967C56.9789 87.0836 56.3824 86.4808 56.03 86.8973Z" fill="#D6D7D6"/>
</g>
</g>
<g id="Group_61">
<g id="Group_62">
<path id="Vector_30" d="M43.8969 93.917C40.6589 97.3548 37.9987 101.211 35.9485 105.464C35.713 105.954 36.4433 106.383 36.6805 105.891C38.7019 101.702 41.3045 97.9032 44.4967 94.5145C44.8695 94.1184 44.2714 93.5192 43.8969 93.917Z" fill="#D6D7D6"/>
</g>
</g>
<g id="Group_63">
<g id="Group_64">
<path id="Vector_31" d="M40.9272 103.622C40.0376 105.501 39.492 107.464 39.2785 109.531C39.2226 110.073 40.0698 110.068 40.1257 109.531C40.324 107.617 40.8357 105.789 41.6591 104.05C41.8896 103.56 41.1593 103.13 40.9272 103.622Z" fill="#D6D7D6"/>
</g>
</g>
<g id="Group_65">
<g id="Group_66">
<path id="Vector_32" d="M70.2425 88.6728C70.4695 90.115 70.6949 91.5589 70.9219 93.001C71.0066 93.5376 71.8233 93.3091 71.7386 92.7759C71.5116 91.3337 71.2862 89.8899 71.0592 88.4477C70.9744 87.9111 70.1578 88.1397 70.2425 88.6728Z" fill="#D6D7D6"/>
</g>
</g>
<g id="Group_67">
<g id="Group_68">
<path id="Vector_33" d="M72.1107 88.6645C72.2632 89.1199 72.4157 89.5753 72.5682 90.0308C72.7411 90.5454 73.5594 90.3237 73.3849 89.8056C73.2324 89.3502 73.0799 88.8947 72.9275 88.4393C72.7563 87.9246 71.9379 88.1464 72.1107 88.6645Z" fill="#D6D7D6"/>
</g>
</g>
<g id="Group_69">
<g id="Group_70">
<path id="Vector_34" d="M74.4708 87.5065C78.1443 91.8042 80.874 96.7147 82.5904 102.101C82.7547 102.617 83.5731 102.397 83.4071 101.876C81.6466 96.3525 78.839 91.3167 75.0707 86.9073C74.7148 86.4926 74.1184 87.0935 74.4708 87.5065Z" fill="#D6D7D6"/>
</g>
</g>
<g id="Group_71">
<g id="Group_72">
<path id="Vector_35" d="M86.0405 105.96C86.8809 108.237 87.7213 110.512 88.5634 112.788C88.7515 113.295 89.5699 113.076 89.3802 112.563C88.5397 110.288 87.6976 108.012 86.8572 105.735C86.6708 105.229 85.8507 105.449 86.0405 105.96Z" fill="#D6D7D6"/>
</g>
</g>
<g id="Group_73">
<g id="Group_74">
<path id="Vector_36" d="M83.9779 77.8367C86.0705 81.1967 88.4579 84.3314 91.1401 87.2428C91.5095 87.644 92.1076 87.0448 91.7399 86.6437C89.1068 83.7848 86.7652 80.7058 84.7116 77.4084C84.4235 76.948 83.6899 77.3729 83.9779 77.8367Z" fill="#D6D7D6"/>
</g>
</g>
<g id="Group_75">
<g id="Group_76">
<path id="Vector_37" d="M96.3631 90.6822C98.5014 92.7963 100.64 94.9121 102.78 97.0263C103.168 97.4105 103.768 96.8113 103.38 96.4271C101.241 94.313 99.1012 92.1971 96.9629 90.0812C96.5732 89.6987 95.9751 90.2979 96.3631 90.6822Z" fill="#D6D7D6"/>
</g>
</g>
<g id="Group_77">
<g id="Group_78">
<path id="Vector_38" d="M73.2694 115.312C73.8777 116.83 74.4877 118.349 75.096 119.865C75.2959 120.365 76.116 120.146 75.9127 119.64C75.3044 118.122 74.6944 116.605 74.0862 115.087C73.8862 114.588 73.0661 114.806 73.2694 115.312Z" fill="#D6D7D6"/>
</g>
</g>
<g id="Group_79">
<g id="Group_80">
<path id="Vector_39" d="M89.7643 80.641C90.9808 81.9325 92.1957 83.2223 93.4123 84.5138C93.7868 84.9116 94.3849 84.3124 94.0121 83.9147C92.7955 82.6249 91.5807 81.3333 90.3641 80.0418C89.9896 79.6457 89.3915 80.2449 89.7643 80.641Z" fill="#D6D7D6"/>
</g>
</g>
<g id="Group_81">
<g id="Group_82">
<path id="Vector_40" d="M93.2648 76.8276C96.8399 77.1832 100.413 77.537 103.989 77.8909C104.531 77.945 104.527 77.0985 103.989 77.0443C100.413 76.6905 96.8399 76.335 93.2648 75.9811C92.7226 75.9286 92.7259 76.7751 93.2648 76.8276Z" fill="#D6D7D6"/>
</g>
</g>
<g id="Group_83">
<g id="Group_84">
<path id="Vector_41" d="M103.634 80.5091C105.383 81.1152 107.131 81.7213 108.88 82.3275C109.397 82.5069 109.619 81.6892 109.105 81.5114C107.357 80.9053 105.608 80.2992 103.859 79.6931C103.343 79.5136 103.121 80.3313 103.634 80.5091Z" fill="#D6D7D6"/>
</g>
</g>
<g id="Group_85">
<g id="Group_86">
<path id="Vector_42" d="M102.085 85.6396C103.623 87.0364 105.324 88.2012 107.188 89.1189C107.676 89.3593 108.105 88.6296 107.615 88.3875C105.814 87.502 104.169 86.3896 102.683 85.0403C102.281 84.6763 101.68 85.2722 102.085 85.6396Z" fill="#D6D7D6"/>
</g>
</g>
<g id="Group_87">
<g id="Group_88">
<path id="Vector_43" d="M79.1391 64.2036C82.4754 60.7793 85.8116 57.3551 89.1479 53.9325C89.5291 53.5415 88.9293 52.9423 88.548 53.3333C85.2118 56.7576 81.8755 60.1818 78.5393 63.6061C78.1597 63.9954 78.7579 64.5963 79.1391 64.2036Z" fill="#D6D7D6"/>
</g>
</g>
<g id="Group_89">
<g id="Group_90">
<path id="Vector_44" d="M94.4074 49.6199C96.9862 47.0335 99.5634 44.4454 102.142 41.859C102.527 41.4731 101.929 40.8739 101.542 41.2598C98.9636 43.8462 96.3864 46.4343 93.8076 49.0207C93.423 49.4083 94.0211 50.0058 94.4074 49.6199Z" fill="#D6D7D6"/>
</g>
</g>
<g id="Group_91">
<g id="Group_92">
<path id="Vector_45" d="M98.0954 49.6576C99.3865 48.5181 100.678 47.377 101.969 46.2376C102.379 45.8753 101.777 45.2793 101.369 45.6383C100.078 46.7777 98.7867 47.9188 97.4956 49.0582C97.0872 49.4205 97.6888 50.0165 98.0954 49.6576Z" fill="#D6D7D6"/>
</g>
</g>
<g id="Group_93">
<g id="Group_94">
<path id="Vector_46" d="M105.988 45.8445C106.217 45.6922 106.444 45.54 106.673 45.3894C107.123 45.0882 106.7 44.3555 106.246 44.6584C106.019 44.8107 105.79 44.963 105.563 45.1136C105.109 45.4148 105.532 46.1474 105.988 45.8445Z" fill="#D6D7D6"/>
</g>
</g>
<g id="Group_95">
<g id="Group_96">
<path id="Vector_47" d="M106.903 51.7663C108.573 50.5509 110.246 49.3339 111.917 48.1186C112.352 47.8003 111.93 47.0657 111.49 47.3873C109.819 48.6027 108.148 49.8197 106.476 51.035C106.039 51.3532 106.462 52.0879 106.903 51.7663Z" fill="#D6D7D6"/>
</g>
</g>
<g id="Group_97">
<g id="Group_98">
<path id="Vector_48" d="M73.9578 26.2319C73.3156 30.2622 72.6718 34.2924 72.0296 38.3226C71.9449 38.8558 72.7616 39.0844 72.8463 38.5478C73.4885 34.5175 74.1323 30.4873 74.7745 26.457C74.8609 25.9238 74.0442 25.6953 73.9578 26.2319Z" fill="#D6D7D6"/>
</g>
</g>
<g id="Group_99">
<g id="Group_100">
<path id="Vector_49" d="M77.9894 24.8879C77.5353 27.3931 77.0812 29.8999 76.6271 32.4051C76.5305 32.9383 77.3472 33.1668 77.4437 32.6302C77.8978 30.125 78.3519 27.6182 78.806 25.113C78.9026 24.5798 78.0859 24.3513 77.9894 24.8879Z" fill="#D6D7D6"/>
</g>
</g>
<g id="Group_101">
<g id="Group_102">
<path id="Vector_50" d="M81.2273 28.8844C80.5445 30.3282 79.8616 31.7704 79.1788 33.2142C78.9466 33.7034 79.6769 34.1333 79.9107 33.6408C80.5936 32.1969 81.2764 30.7548 81.9593 29.3109C82.1897 28.8218 81.4594 28.3918 81.2273 28.8844Z" fill="#D6D7D6"/>
</g>
</g>
<g id="Group_103">
<g id="Group_104">
<path id="Vector_51" d="M73.2009 44.9306C72.3639 48.3465 71.5269 51.7623 70.6898 55.1798C70.5594 55.7096 71.3777 55.9347 71.5065 55.4049C72.3435 51.9891 73.1806 48.5733 74.0193 45.1558C74.1481 44.6277 73.3297 44.4008 73.2009 44.9306Z" fill="#D6D7D6"/>
</g>
</g>
</g>
</g>
</svg>
