<svg width="80" height="80" viewBox="0 0 80 80" fill="none" xmlns="http://www.w3.org/2000/svg">
<g id="Frame">
<path id="Vector" d="M12.3031 20.9733C16.9798 15.9033 24.0565 13.3333 33.3331 13.3333H36.6665V22.7299L33.9865 23.2666C29.4198 24.1799 26.2431 25.9766 24.5431 28.6133C23.6561 30.0337 23.153 31.6601 23.0831 33.3333H33.3331C34.2172 33.3333 35.065 33.6844 35.6902 34.3096C36.3153 34.9347 36.6665 35.7825 36.6665 36.6666V59.9999C36.6665 63.6766 33.6765 66.6666 29.9998 66.6666H9.9998C9.11575 66.6666 8.2679 66.3154 7.64278 65.6903C7.01766 65.0652 6.66647 64.2173 6.66647 63.3333V46.6666L6.67647 36.9366C6.64647 36.5666 6.01313 27.7999 12.3031 20.9733ZM66.6665 66.6666H46.6665C45.7824 66.6666 44.9346 66.3154 44.3094 65.6903C43.6843 65.0652 43.3331 64.2173 43.3331 63.3333V46.6666L43.3431 36.9366C43.3131 36.5666 42.6798 27.7999 48.9698 20.9733C53.6465 15.9033 60.7231 13.3333 69.9998 13.3333H73.3331V22.7299L70.6531 23.2666C66.0865 24.1799 62.9098 25.9766 61.2098 28.6133C60.3228 30.0337 59.8197 31.6601 59.7498 33.3333H69.9998C70.8839 33.3333 71.7317 33.6844 72.3568 34.3096C72.9819 34.9347 73.3331 35.7825 73.3331 36.6666V59.9999C73.3331 63.6766 70.3431 66.6666 66.6665 66.6666Z" fill="#C19D56"/>
</g>
</svg>
